<?xml version="1.0" encoding="UTF-8"?>
<svg width="335px" height="369px" viewBox="0 0 335 369" version="1.1" xmlns="http://www.w3.org/2000/svg" xmlns:xlink="http://www.w3.org/1999/xlink">
    <!-- Generator: Sketch 54.1 (76490) - https://sketchapp.com -->
    <title>A4-03-Method-Updated</title>
    <desc>Created with Sketch.</desc>
    <g id="portfolio" stroke="none" stroke-width="1" fill="none" fill-rule="evenodd">
        <g id="A4-03-Method-Copy" transform="translate(-254.000000, -30.000000)">
            <g id="Design-Method" transform="translate(258.000000, 35.000000)">
                <circle id="Oval" stroke="#000000" stroke-width="2" fill="#FFFFFF" cx="163" cy="176" r="163"></circle>
                <path d="M121.93457,46.2802734 C84.2356771,62.6848958 61.2537816,90.6189185 52.9888838,130.082341" id="Path-3" stroke="#4A4A4A" stroke-width="2"></path>
                <path d="M120.288574,221.171875 C83.0277559,237.196082 60.2648978,264.939897 52,304.40332" id="Path-3" stroke="#4A4A4A" stroke-width="2" transform="translate(86.144287, 262.787598) scale(1, -1) translate(-86.144287, -262.787598) "></path>
                <path d="M274.945687,221 C237.246793,237.404622 214.264898,265.338645 206,304.802068" id="Path-3" stroke="#4A4A4A" stroke-width="2" transform="translate(240.472843, 262.901034) scale(-1, -1) translate(-240.472843, -262.901034) "></path>
                <path d="M273.144043,46.5595703 C237.294683,60.9704963 215.237554,87.9076708 206.972656,127.371094" id="Path-3" stroke="#4A4A4A" stroke-width="2" transform="translate(240.058350, 86.965332) scale(-1, 1) translate(-240.058350, -86.965332) "></path>
                <path d="M205.482422,87.0117188 C217.160807,109.214844 223,139.550781 223,178.019531 C223,216.488281 217.160807,244.114909 205.482422,260.899414" id="Path-5" stroke="#4A4A4A" stroke-width="2"></path>
                <path d="M104.763184,84.9125977 C117.609538,108.515137 124.032715,139.550781 124.032715,178.019531 C124.032715,216.488281 117.609538,244.817708 104.763184,263.007812" id="Path-5" stroke="#4A4A4A" stroke-width="2" transform="translate(114.397949, 173.960205) scale(-1, 1) translate(-114.397949, -173.960205) "></path>
                <path d="M72.5878906,214.611328 C93.438151,226.539714 122.977214,232.503906 161.205078,232.503906 C199.432943,232.503906 230.249837,226.539714 253.655762,214.611328" id="Path-6" stroke="#4A4A4A" stroke-width="2"></path>
                <path d="M74.1411133,119 C93.8517253,130.684245 122.820964,136.526367 161.048828,136.526367 C199.276693,136.526367 229.838867,130.684245 252.735352,119" id="Path-6" stroke="#4A4A4A" stroke-width="2" transform="translate(163.438232, 127.763184) scale(1, -1) translate(-163.438232, -127.763184) "></path>
                <path d="M93,175.5 L119,175.5" id="Path-7" stroke="#4A4A4A" stroke-width="2"></path>
                <path d="M163.25,107.600098 L163.25,129.584473" id="Path-2" stroke="#4A4A4A" stroke-width="2"></path>
                <ellipse id="Oval" fill="#000000" cx="163.777407" cy="61.4285714" rx="40.7774072" ry="41.4285714"></ellipse>
                <ellipse id="Oval" fill="#000000" cx="163.777407" cy="290.428571" rx="40.7774072" ry="41.4285714"></ellipse>
                <ellipse id="Oval" fill="#000000" cx="278" cy="175.5" rx="41" ry="41.5"></ellipse>
                <ellipse id="Oval" fill="#000000" cx="49" cy="175.5" rx="41" ry="41.5"></ellipse>
                <ellipse id="Oval" stroke="#000000" stroke-width="2" fill="#FFFFFF" cx="163.777407" cy="175.428571" rx="40.7774072" ry="41.4285714"></ellipse>
                <path id="Line" d="M116.120976,49.7485292 L111.276393,52.1708204 L110.82918,51.2763932 L115.673762,48.854102 L113.884908,45.2763932 L123.947214,45.2763932 L117.90983,53.3262379 L116.120976,49.7485292 Z" fill="#4A4A4A" fill-rule="nonzero"></path>
                <path id="Line" d="M54.4635439,123.214803 L55.1647608,120.877413 L56.1225871,121.164761 L55.4213702,123.502151 L59.2526753,124.651542 L52.3563261,131.978913 L50.6322387,122.065411 L54.4635439,123.214803 Z" fill="#4A4A4A" fill-rule="nonzero"></path>
                <path id="Line" d="M163.5,133 L159,124 L168,124 L163.5,133 Z" fill="#4A4A4A" fill-rule="nonzero"></path>
                <path id="Line" d="M71.8288643,137.769527 L76.9835653,129.127822 L81.8350485,136.708265 L71.8288643,137.769527 Z" fill="#4A4A4A" fill-rule="nonzero"></path>
                <path id="Line" d="M254.680146,137.754901 L244.643411,137.037992 L249.231633,129.295368 L254.680146,137.754901 Z" fill="#4A4A4A" fill-rule="nonzero"></path>
                <path id="Line" d="M274.637361,131.980762 L267.838013,124.563292 L276.491728,122.090801 L274.637361,131.980762 Z" fill="#4A4A4A" fill-rule="nonzero"></path>
                <path id="Line" d="M163.208333,104 L167.708333,113 L158.708333,113 L163.208333,104 Z" fill="#4A4A4A" fill-rule="nonzero"></path>
                <path id="Line" d="M207.20572,88.5442702 L206.45573,89.2057196 L203.455699,91.8514357 L200.877609,82.1250051 L210.205607,85.8983914 L207.205648,88.5441889 Z" fill="#4A4A4A" fill-rule="nonzero"></path>
                <path id="Line" d="M212.326238,48.854102 L213.17082,49.2763932 L212.723607,50.1708204 L211.879024,49.7485292 L210.09017,53.3262379 L204.052786,45.2763932 L214.115092,45.2763932 L212.326238,48.854102 Z" fill="#4A4A4A" fill-rule="nonzero"></path>
                <path d="M164.25,222 L164.25,243.984375" id="Path-2" stroke="#4A4A4A" stroke-width="2"></path>
                <path id="Line" d="M163.75,238 L163.75,236 L164.75,236 L164.75,238 L168.75,238 L164.25,247 L159.75,238 L163.75,238 Z" fill="#4A4A4A" fill-rule="nonzero"></path>
                <path id="Line" d="M121.75,260 L119.8,257.4 L120.6,256.8 L122.55,259.4 L125.75,257 L127.55,266.9 L118.55,262.4 L121.75,260 Z" fill="#4A4A4A" fill-rule="nonzero"></path>
                <path id="Line" d="M205.652098,259.720923 L206.445767,258.794976 L207.205024,259.445767 L206.411355,260.371715 L209.448381,262.97488 L200.174604,266.879628 L202.615072,257.117758 L205.652098,259.720923 Z" fill="#4A4A4A" fill-rule="nonzero"></path>
                <path id="Line" d="M114.673762,302.145898 L113.82918,301.723607 L114.276393,300.82918 L115.120976,301.251471 L116.90983,297.673762 L122.947214,305.723607 L112.884908,305.723607 L114.673762,302.145898 Z" fill="#4A4A4A" fill-rule="nonzero"></path>
                <path id="Line" d="M154,339 L153,339 L153,338 L154,338 L154,334 L163,338.5 L154,343 L154,339 Z" fill="#000000" fill-rule="nonzero"></path>
                <path id="Line" d="M172,338 L175,338 L175,339 L172,339 L172,343 L163,338.5 L172,334 L172,338 Z" fill="#000000" fill-rule="nonzero"></path>
                <path id="Line" d="M211.879024,301.251471 L212.723607,300.82918 L213.17082,301.723607 L212.326238,302.145898 L214.115092,305.723607 L204.052786,305.723607 L210.09017,297.673762 L211.879024,301.251471 Z" fill="#4A4A4A" fill-rule="nonzero"></path>
                <path id="Line" d="M164.208333,218 L168.708333,227 L159.708333,227 L164.208333,218 Z" fill="#4A4A4A" fill-rule="nonzero"></path>
                <path id="Line" d="M255.637784,213.24393 L250.212299,221.71825 L245.603037,213.988134 L255.637784,213.24393 Z" fill="#4A4A4A" fill-rule="nonzero"></path>
                <path id="Line" d="M275.326878,219.014256 L277.56477,228.824549 L268.821379,226.690745 L275.326878,219.014256 Z" fill="#4A4A4A" fill-rule="nonzero"></path>
                <path id="Line" d="M78.1731583,217.190886 L80.1799001,218.305743 L79.6942572,219.1799 L77.6875154,218.065044 L75.7449437,221.561673 L70.0629214,213.257179 L80.11573,213.694257 L78.1731583,217.190886 Z" fill="#4A4A4A" fill-rule="nonzero"></path>
                <path id="Line" d="M99.375,175 L102,175 L102,176 L99.375,176 L99.375,180 L90.375,175.5 L99.375,171 L99.375,175 Z" fill="#4A4A4A" fill-rule="nonzero"></path>
                <path id="Line" d="M113,176 L112,176 L112,175 L113,175 L113,171 L122,175.5 L113,180 L113,176 Z" fill="#4A4A4A" fill-rule="nonzero"></path>
                <path d="M208,175.5 L234,175.5" id="Path-7" stroke="#4A4A4A" stroke-width="2"></path>
                <path id="Line" d="M214.375,175 L217,175 L217,176 L214.375,176 L214.375,180 L205.375,175.5 L214.375,171 L214.375,175 Z" fill="#4A4A4A" fill-rule="nonzero"></path>
                <path id="Line" d="M228,176 L227,176 L227,175 L228,175 L228,171 L237,175.5 L228,180 L228,176 Z" fill="#4A4A4A" fill-rule="nonzero"></path>
                <path id="Line" d="M53.8320024,227.689125 L54.0965588,228.879628 L53.1203717,229.096559 L52.8558154,227.906055 L48.9510671,228.773777 L51.3915348,219.011906 L57.7367507,226.821403 L53.8320024,227.689125 Z" fill="#4A4A4A" fill-rule="nonzero"></path>
                <path id="Line" d="M122.391985,90.4271839 L119.744451,96.1635088 L118.836491,95.7444506 L121.484026,90.0081257 L117.852188,88.331893 L125.709529,82.0460203 L126.023823,92.1034166 L122.391985,90.4271839 Z" fill="#4A4A4A" fill-rule="nonzero"></path>
                <text id="ENVISIONING" font-family="MyriadHebrew-Bold, Myriad Hebrew" font-size="12" font-weight="bold" fill="#FFFFFF">
                    <tspan x="127" y="69">ENVISIONING</tspan>
                </text>
                <text id="PROTOTYPING" font-family="MyriadHebrew-Bold, Myriad Hebrew" font-size="12" font-weight="bold" fill="#FFFFFF">
                    <tspan x="10" y="188">PROTOTYPING</tspan>
                </text>
                <text id="Communicating" font-family="MyriadHebrew-Bold, Myriad Hebrew" font-size="12" font-weight="bold" fill="#000000">
                    <tspan x="115" y="355.565429">COMMUNICATING</tspan>
                </text>
                <text id="INQUIRYING" font-family="MyriadHebrew-Bold, Myriad Hebrew" font-size="12" font-weight="bold" fill="#000000">
                    <tspan x="129" y="9">INQUIRYING</tspan>
                </text>
                <text id="REFLECTING" font-family="MyriadHebrew-Bold, Myriad Hebrew" font-size="12" font-weight="bold" fill="#000000">
                    <tspan x="130" y="188">REFLECTING</tspan>
                </text>
                <text id="VALIDATING" font-family="MyriadHebrew-Bold, Myriad Hebrew" font-size="12" font-weight="bold" fill="#FFFFFF">
                    <tspan x="130" y="303">VALIDATING</tspan>
                </text>
                <text id="EMPATHIZING" font-family="MyriadHebrew-Bold, Myriad Hebrew" font-size="12" font-weight="bold" fill="#FFFFFF">
                    <tspan x="241.62" y="188">EMPATHIZING</tspan>
                </text>
                <g id="baseline-visibility-24px-(2)" transform="translate(151.000000, 33.000000)">
                    <polygon id="Shape" points="0 0 24 0 24 24 0 24"></polygon>
                    <path d="M12,4.5 C7,4.5 2.73,7.61 1,12 C2.73,16.39 7,19.5 12,19.5 C17,19.5 21.27,16.39 23,12 C21.27,7.61 17,4.5 12,4.5 Z M12,17 C9.24,17 7,14.76 7,12 C7,9.24 9.24,7 12,7 C14.76,7 17,9.24 17,12 C17,14.76 14.76,17 12,17 Z M12,9 C10.34,9 9,10.34 9,12 C9,13.66 10.34,15 12,15 C13.66,15 15,13.66 15,12 C15,10.34 13.66,9 12,9 Z" id="Shape" fill="#FFFFFF" fill-rule="nonzero"></path>
                </g>
                <g id="baseline-how_to_reg-24px" transform="translate(150.000000, 266.000000)">
                    <polygon id="Shape" points="0 0 24 0 24 24 0 24"></polygon>
                    <g id="Group" transform="translate(3.000000, 4.000000)" fill="#FFFFFF" fill-rule="nonzero">
                        <path d="M6,13 L9,10.06 C8.61,10.02 8.32,10 8,10 C5.33,10 0,11.34 0,14 L0,16 L9,16 L6,13 Z M8,8 C10.21,8 12,6.21 12,4 C12,1.79 10.21,0 8,0 C5.79,0 4,1.79 4,4 C4,6.21 5.79,8 8,8 L8,8 Z" id="Shape"></path>
                        <polygon id="Shape" points="12.47 16.5 9 13 10.4 11.59 12.47 13.67 17.6 8.5 19 9.91"></polygon>
                    </g>
                </g>
                <g id="baseline-build-24px" transform="translate(35.000000, 150.000000)">
                    <polygon id="Shape" points="2 0 26 0 26 24 2 24"></polygon>
                    <path d="M22.7,19 L13.6,9.9 C14.5,7.6 14,4.9 12.1,3 C10.1,1 7.1,0.6 4.7,1.7 L9,6 L6,9 L1.6,4.7 C0.4,7.1 0.9,10.1 2.9,12.1 C4.8,14 7.5,14.5 9.8,13.6 L18.9,22.7 C19.3,23.1 19.9,23.1 20.3,22.7 L22.6,20.4 C23.1,20 23.1,19.3 22.7,19 Z" id="Shape" fill="#FFFFFF" fill-rule="nonzero"></path>
                </g>
                <g id="baseline-refresh-24px" transform="translate(151.000000, 150.000000)">
                    <path d="M17.65,6.35 C16.2,4.9 14.21,4 12,4 C7.58,4 4.01,7.58 4.01,12 C4.01,16.42 7.58,20 12,20 C15.73,20 18.84,17.45 19.73,14 L17.65,14 C16.83,16.33 14.61,18 12,18 C8.69,18 6,15.31 6,12 C6,8.69 8.69,6 12,6 C13.66,6 15.14,6.69 16.22,7.78 L13,11 L20,11 L20,4 L17.65,6.35 Z" id="Shape" fill="#000000" fill-rule="nonzero"></path>
                    <polygon id="Shape" points="0 0 24 0 24 24 0 24"></polygon>
                </g>
                <g id="favorite_border-24px" transform="translate(266.000000, 150.000000)">
                    <polygon id="Path" points="0 0 24 0 24 24 0 24"></polygon>
                    <path d="M16.5,3 C14.76,3 13.09,3.81 12,5.09 C10.91,3.81 9.24,3 7.5,3 C4.42,3 2,5.42 2,8.5 C2,12.28 5.4,15.36 10.55,20.04 L12,21.35 L13.45,20.03 C18.6,15.36 22,12.28 22,8.5 C22,5.42 19.58,3 16.5,3 Z M12.1,18.55 L12,18.65 L11.9,18.55 C7.14,14.24 4,11.39 4,8.5 C4,6.5 5.5,5 7.5,5 C9.04,5 10.54,5.99 11.07,7.36 L12.94,7.36 C13.46,5.99 14.96,5 16.5,5 C18.5,5 20,6.5 20,8.5 C20,11.39 16.86,14.24 12.1,18.55 Z" id="Shape" fill="#FFFFFF" fill-rule="nonzero"></path>
                </g>
            </g>
        </g>
    </g>
</svg>