<?xml version="1.0" encoding="UTF-8" standalone="no"?>
<svg
   xmlns:dc="http://purl.org/dc/elements/1.1/"
   xmlns:cc="http://creativecommons.org/ns#"
   xmlns:rdf="http://www.w3.org/1999/02/22-rdf-syntax-ns#"
   xmlns:svg="http://www.w3.org/2000/svg"
   xmlns="http://www.w3.org/2000/svg"
   xmlns:sodipodi="http://sodipodi.sourceforge.net/DTD/sodipodi-0.dtd"
   xmlns:inkscape="http://www.inkscape.org/namespaces/inkscape"
   version="1.1"
   id="svg10"
   xml:space="preserve"
   width="250"
   height="250"
   viewBox="0 0 250 250"
   sodipodi:docname="MOXHU-icon.svg"
   inkscape:version="1.0.1 (c497b03c, 2020-09-10)"><metadata
     id="metadata16"><rdf:RDF><cc:Work
         rdf:about=""><dc:format>image/svg+xml</dc:format><dc:type
           rdf:resource="http://purl.org/dc/dcmitype/StillImage" /><dc:title></dc:title></cc:Work></rdf:RDF></metadata><defs
     id="defs14"><clipPath
       clipPathUnits="userSpaceOnUse"
       id="clipPath26"><path
         d="M 0,612 H 792 V 0 H 0 Z"
         id="path24" /></clipPath></defs><sodipodi:namedview
     pagecolor="#ffffff"
     bordercolor="#666666"
     borderopacity="1"
     objecttolerance="10"
     gridtolerance="10"
     guidetolerance="10"
     inkscape:pageopacity="0"
     inkscape:pageshadow="2"
     inkscape:window-width="795"
     inkscape:window-height="480"
     id="namedview12"
     showgrid="false"
     inkscape:zoom="0.61195482"
     inkscape:cx="162.49111"
     inkscape:cy="111.32118"
     inkscape:window-x="0"
     inkscape:window-y="23"
     inkscape:window-maximized="0"
     inkscape:current-layer="g18" /><g
     id="g18"
     inkscape:groupmode="layer"
     inkscape:label="MOXHU navecita"
     transform="matrix(1.3333333,0,0,-1.3333333,0,816)"><g
       id="g20"
       transform="translate(-63.21984,86.863488)"><g
         id="g22"
         clip-path="url(#clipPath26)"><g
           id="g28"
           transform="translate(119.9849,441.7178)"><path
             d="M 0,0 C 0,0 -7.584,59.729 37.918,59.729 83.421,59.729 75.838,0 75.838,0 Z"
             style="fill:#ffffff;fill-opacity:1;fill-rule:nonzero;stroke:none"
             id="path30" /></g><g
           id="g32"
           transform="translate(122.0112,441.7178)"><path
             d="m 0,0 c -1.289,10.259 -0.48,21.248 2.323,31.17 2.189,7.756 6.184,15.291 12.685,20.228 8.054,6.119 19.082,7.394 28.796,5.598 C 68.996,52.334 74.502,21.64 71.784,0 c 0.674,0.68 1.352,1.36 2.028,2.04 H -2.026 c -2.615,0 -2.615,-4.077 0,-4.077 h 75.838 c 1.209,0 1.888,0.936 2.025,2.037 1.293,10.298 0.447,21.337 -2.208,31.33 -2.085,7.839 -5.813,15.389 -11.717,21.021 -7.018,6.698 -16.529,9.352 -26.02,9.415 C 26.336,61.832 16.97,58.917 9.872,52.351 3.89,46.821 0.284,39.097 -1.843,31.33 -4.568,21.39 -5.343,10.258 -4.053,0 -3.731,-2.57 0.326,-2.602 0,0"
             style="fill:#c20b1d;fill-opacity:1;fill-rule:nonzero;stroke:none"
             id="path34" /></g><g
           id="g36"
           transform="translate(133.7822,441.8291)"><path
             d="M 0,0 C 0,0 -3.317,38.821 23.707,39.597 50.734,40.375 48.417,0 48.417,0 Z"
             style="fill:#c20b1d;fill-opacity:1;fill-rule:nonzero;stroke:none"
             id="path38" /></g><g
           id="g40"
           transform="translate(180.5083,443.5781)"><path
             d="m 0,0 c 0.001,0.183 0.002,0.379 0.002,0.591 0.002,3.101 -0.231,9.029 -1.655,15.13 -1.415,6.112 -4.046,12.333 -8.555,16.183 -3.012,2.571 -6.833,4.197 -12.047,4.211 -0.234,0 -0.471,-0.004 -0.715,-0.013 -5.093,-0.153 -8.876,-1.701 -11.846,-4.065 -2.964,-2.368 -5.121,-5.62 -6.663,-9.232 -3.095,-7.219 -3.648,-15.801 -3.64,-20.617 0,-0.857 0.017,-1.596 0.037,-2.188 z m -46.726,-3.495 v 1.746 l 1.73,0.15 -1.73,-0.15 v -1.746 h -1.596 l -0.136,1.597 c -0.004,0.041 -0.137,1.595 -0.137,4.086 0.003,3.806 0.304,9.786 1.877,15.903 1.58,6.107 4.43,12.423 9.74,16.681 3.532,2.833 8.155,4.666 13.908,4.821 0.274,0.01 0.545,0.016 0.815,0.016 5.957,0.009 10.723,-1.96 14.303,-5.047 3.589,-3.086 6.018,-7.207 7.691,-11.514 C 3.076,14.43 3.47,4.959 3.477,0.591 3.477,-0.923 3.426,-1.821 3.425,-1.847 L 3.333,-3.495 Z"
             style="fill:#c20b1d;fill-opacity:1;fill-rule:nonzero;stroke:none"
             id="path42" /></g><g
           id="g44"
           transform="translate(150.0576,464.7334)"><path
             d="m 0,0 v -12.811 c 0,-2.629 4.053,-2.629 4.053,0 V 0 C 4.053,2.629 0,2.629 0,0"
             style="fill:#feffff;fill-opacity:1;fill-rule:nonzero;stroke:none"
             id="path46" /></g><g
           id="g48"
           transform="translate(160.4541,463.9844)"><path
             d="m 0,0 v -11.323 c 0,-2.628 4.053,-2.628 4.053,0 V 0 C 4.053,2.63 0,2.63 0,0"
             style="fill:#feffff;fill-opacity:1;fill-rule:nonzero;stroke:none"
             id="path50" /></g><g
           id="g52"
           transform="translate(115.9282,403.2173)"><path
             d="m 0,0 c -6.692,-5.046 -13.385,-10.095 -20.076,-15.14 -2.065,-1.557 -0.049,-5.099 2.046,-3.521 6.691,5.048 13.383,10.095 20.076,15.141 C 4.111,-1.962 2.095,1.579 0,0"
             style="fill:#c20b1d;fill-opacity:1;fill-rule:nonzero;stroke:none"
             id="path54" /></g><g
           id="g56"
           transform="translate(134.1191,384.2402)"><path
             d="m 0,0 c -3.089,-7.117 -6.177,-14.234 -9.265,-21.351 -1.035,-2.384 2.456,-4.462 3.498,-2.058 3.091,7.119 6.18,14.235 9.267,21.351 C 4.534,0.328 1.043,2.404 0,0"
             style="fill:#c20b1d;fill-opacity:1;fill-rule:nonzero;stroke:none"
             id="path58" /></g><g
           id="g60"
           transform="translate(166.7314,381.6421)"><path
             d="m 0,0 c 2.703,-6.988 5.407,-13.974 8.108,-20.962 0.937,-2.422 4.857,-1.37 3.909,1.084 C 9.314,-12.891 6.614,-5.902 3.91,1.085 2.972,3.505 -0.948,2.454 0,0"
             style="fill:#c20b1d;fill-opacity:1;fill-rule:nonzero;stroke:none"
             id="path62" /></g><g
           id="g64"
           transform="translate(194.6362,395.2183)"><path
             d="m 0,0 c 5.149,-4.529 10.296,-9.058 15.445,-13.586 1.959,-1.722 4.837,1.148 2.866,2.881 C 13.162,-6.176 8.015,-1.647 2.867,2.882 0.909,4.605 -1.97,1.734 0,0"
             style="fill:#c20b1d;fill-opacity:1;fill-rule:nonzero;stroke:none"
             id="path66" /></g><g
           id="g68"
           transform="translate(107.3062,434.0269)"><path
             d="M 0,0 1.455,7.47 H 96.72 L 97.873,0 Z"
             style="fill:#ffffff;fill-opacity:1;fill-rule:nonzero;stroke:none"
             id="path70" /></g><g
           id="g72"
           transform="translate(109.2617,433.4858)"><path
             d="M 0,0 C 0.484,2.489 0.97,4.979 1.454,7.468 0.802,6.969 0.148,6.472 -0.501,5.973 h 86.23 9.035 C 94.113,6.472 93.462,6.969 92.811,7.468 93.195,4.979 93.578,2.489 93.962,0 c 0.651,0.86 1.303,1.719 1.955,2.579 H 9.436 -1.956 c -2.612,0 -2.612,-4.076 0,-4.076 h 86.482 11.391 c 1.432,0 2.154,1.293 1.955,2.58 -0.385,2.491 -0.769,4.98 -1.153,7.472 -0.135,0.88 -1.133,1.495 -1.955,1.495 H 8.534 -0.501 C -1.352,10.05 -2.284,9.434 -2.456,8.555 -2.94,6.063 -3.426,3.574 -3.91,1.083 -4.41,-1.484 -0.501,-2.58 0,0"
             style="fill:#c20b1d;fill-opacity:1;fill-rule:nonzero;stroke:none"
             id="path74" /></g><g
           id="g76"
           transform="translate(74.4824,426.0737)"><path
             d="M 0,0 C 0,0 -1.761,7.715 6.191,7.951 L 159.079,7.829 c 0,0 5.647,-0.315 5.391,-7.676 z"
             style="fill:#ffffff;fill-opacity:1;fill-rule:nonzero;stroke:none"
             id="path78" /></g><g
           id="g80"
           transform="translate(76.436,426.6167)"><path
             d="m 0,0 c -0.532,2.476 0.809,5.372 4.263,5.369 0.715,0 1.433,-0.002 2.15,-0.002 4.401,-0.004 8.806,-0.006 13.211,-0.009 16.418,-0.014 32.839,-0.025 49.258,-0.041 29.075,-0.02 58.15,-0.045 87.227,-0.067 0.337,-0.001 0.676,-0.001 1.013,-0.001 -0.225,0 0.65,-0.16 1.087,-0.374 1.989,-0.975 2.285,-3.27 2.282,-5.265 0.676,0.679 1.35,1.359 2.026,2.038 C 137.702,1.625 112.886,1.601 88.07,1.58 58.691,1.552 29.313,1.525 -0.065,1.498 c -0.63,0 -1.26,-10e-4 -1.889,-0.002 -2.614,-0.002 -2.614,-4.079 0,-4.077 24.817,0.021 49.63,0.046 74.447,0.07 29.378,0.027 58.757,0.053 88.134,0.08 0.63,10e-4 1.26,0.002 1.89,0.002 1.107,10e-4 2.025,0.927 2.028,2.039 0.01,5.396 -3.05,9.712 -8.545,9.715 -3.821,0.004 -7.638,0.008 -11.458,0.009 C 128.706,9.346 112.87,9.358 97.031,9.373 66.776,9.396 36.519,9.42 6.262,9.444 4.64,9.445 3.146,9.435 1.53,9.077 -3.034,8.065 -4.813,3.105 -3.909,-1.085 -3.354,-3.652 0.554,-2.563 0,0"
             style="fill:#c20b1d;fill-opacity:1;fill-rule:nonzero;stroke:none"
             id="path82" /></g><g
           id="g84"
           transform="translate(211.1553,425.9136)"><path
             d="M 0,0 C 0,0 5.019,-53.96 -56.753,-53.572 -108.897,-53.245 -108.875,0 -108.875,0 Z"
             style="fill:#c20b1d;fill-opacity:1;fill-rule:nonzero;stroke:none"
             id="path86" /></g><g
           id="g88"
           transform="translate(104.3511,421.1626)"><path
             d="m 0,0 c 0.334,-2.969 1.009,-7.091 2.35,-11.657 2.684,-9.147 8.018,-19.996 18.557,-27.223 7.034,-4.824 16.419,-8.107 29.144,-8.193 h 0.661 c 25.833,0.042 39.133,9.609 46.34,20.407 7.194,10.827 8.121,23.184 8.113,28.552 0,0.416 -0.005,0.79 -0.014,1.117 H -0.265 C -0.217,2.225 -0.136,1.208 0,0 m 50.712,-50.567 c -0.222,0 -0.443,10e-4 -0.673,10e-4 -13.314,0.078 -23.468,3.56 -31.092,8.799 -7.627,5.234 -12.699,12.18 -16.053,19.051 -6.708,13.758 -6.693,27.279 -6.703,27.468 0.003,0.094 0,0.217 0.058,0.443 0.061,0.204 0.178,0.631 0.722,1.013 0.305,0.215 0.715,0.302 1.031,0.292 H 106.804 V 4.751 6.5 h 1.582 l 0.148,-1.585 c 0.006,-0.049 0.106,-1.153 0.106,-3.029 -0.008,-5.741 -0.923,-18.737 -8.697,-30.488 -7.746,-11.751 -22.492,-21.966 -49.066,-21.965 z"
             style="fill:#c20b1d;fill-opacity:1;fill-rule:nonzero;stroke:none"
             id="path90" /></g></g></g></g></svg>
