<?xml version="1.0" encoding="UTF-8" standalone="no"?>
<svg
   xmlns:dc="http://purl.org/dc/elements/1.1/"
   xmlns:cc="http://creativecommons.org/ns#"
   xmlns:rdf="http://www.w3.org/1999/02/22-rdf-syntax-ns#"
   xmlns:svg="http://www.w3.org/2000/svg"
   xmlns="http://www.w3.org/2000/svg"
   xmlns:sodipodi="http://sodipodi.sourceforge.net/DTD/sodipodi-0.dtd"
   xmlns:inkscape="http://www.inkscape.org/namespaces/inkscape"
   version="1.1"
   id="svg10"
   xml:space="preserve"
   width="800"
   height="250"
   viewBox="0 0 800 250"
   sodipodi:docname="MOXHU-logo.svg"
   inkscape:version="1.0.1 (c497b03c, 2020-09-10)"><metadata
     id="metadata16"><rdf:RDF><cc:Work
         rdf:about=""><dc:format>image/svg+xml</dc:format><dc:type
           rdf:resource="http://purl.org/dc/dcmitype/StillImage" /><dc:title></dc:title></cc:Work></rdf:RDF></metadata><defs
     id="defs14"><clipPath
       clipPathUnits="userSpaceOnUse"
       id="clipPath26"><path
         d="M 0,612 H 792 V 0 H 0 Z"
         id="path24" /></clipPath><clipPath
       clipPathUnits="userSpaceOnUse"
       id="clipPath98"><path
         d="M 0,612 H 792 V 0 H 0 Z"
         id="path96" /></clipPath></defs><sodipodi:namedview
     pagecolor="#ffffff"
     bordercolor="#666666"
     borderopacity="1"
     objecttolerance="10"
     gridtolerance="10"
     guidetolerance="10"
     inkscape:pageopacity="0"
     inkscape:pageshadow="2"
     inkscape:window-width="1064"
     inkscape:window-height="648"
     id="namedview12"
     showgrid="false"
     inkscape:zoom="0.38724225"
     inkscape:cx="184.93508"
     inkscape:cy="261.78971"
     inkscape:window-x="0"
     inkscape:window-y="23"
     inkscape:window-maximized="0"
     inkscape:current-layer="g18" /><g
     id="g18"
     inkscape:groupmode="layer"
     inkscape:label="MOXHU"
     transform="matrix(1.3333333,0,0,-1.3333333,0,816)"><g
       id="g20"
       transform="translate(-47.742533,88.563658)"><g
         id="g22"
         clip-path="url(#clipPath26)"><g
           id="g28"
           transform="translate(119.9849,441.7178)"><path
             d="M 0,0 C 0,0 -7.584,59.729 37.918,59.729 83.421,59.729 75.838,0 75.838,0 Z"
             style="fill:#ffffff;fill-opacity:1;fill-rule:nonzero;stroke:none"
             id="path30" /></g><g
           id="g32"
           transform="translate(122.0112,441.7178)"><path
             d="m 0,0 c -1.289,10.259 -0.48,21.248 2.323,31.17 2.189,7.756 6.184,15.291 12.685,20.228 8.054,6.119 19.082,7.394 28.796,5.598 C 68.996,52.334 74.502,21.64 71.784,0 c 0.674,0.68 1.352,1.36 2.028,2.04 H -2.026 c -2.615,0 -2.615,-4.077 0,-4.077 h 75.838 c 1.209,0 1.888,0.936 2.025,2.037 1.293,10.298 0.447,21.337 -2.208,31.33 -2.085,7.839 -5.813,15.389 -11.717,21.021 -7.018,6.698 -16.529,9.352 -26.02,9.415 C 26.336,61.832 16.97,58.917 9.872,52.351 3.89,46.821 0.284,39.097 -1.843,31.33 -4.568,21.39 -5.343,10.258 -4.053,0 -3.731,-2.57 0.326,-2.602 0,0"
             style="fill:#c20b1d;fill-opacity:1;fill-rule:nonzero;stroke:none"
             id="path34" /></g><g
           id="g36"
           transform="translate(133.7822,441.8291)"><path
             d="M 0,0 C 0,0 -3.317,38.821 23.707,39.597 50.734,40.375 48.417,0 48.417,0 Z"
             style="fill:#c20b1d;fill-opacity:1;fill-rule:nonzero;stroke:none"
             id="path38" /></g><g
           id="g40"
           transform="translate(180.5083,443.5781)"><path
             d="m 0,0 c 0.001,0.183 0.002,0.379 0.002,0.591 0.002,3.101 -0.231,9.029 -1.655,15.13 -1.415,6.112 -4.046,12.333 -8.555,16.183 -3.012,2.571 -6.833,4.197 -12.047,4.211 -0.234,0 -0.471,-0.004 -0.715,-0.013 -5.093,-0.153 -8.876,-1.701 -11.846,-4.065 -2.964,-2.368 -5.121,-5.62 -6.663,-9.232 -3.095,-7.219 -3.648,-15.801 -3.64,-20.617 0,-0.857 0.017,-1.596 0.037,-2.188 z m -46.726,-3.495 v 1.746 l 1.73,0.15 -1.73,-0.15 v -1.746 h -1.596 l -0.136,1.597 c -0.004,0.041 -0.137,1.595 -0.137,4.086 0.003,3.806 0.304,9.786 1.877,15.903 1.58,6.107 4.43,12.423 9.74,16.681 3.532,2.833 8.155,4.666 13.908,4.821 0.274,0.01 0.545,0.016 0.815,0.016 5.957,0.009 10.723,-1.96 14.303,-5.047 3.589,-3.086 6.018,-7.207 7.691,-11.514 C 3.076,14.43 3.47,4.959 3.477,0.591 3.477,-0.923 3.426,-1.821 3.425,-1.847 L 3.333,-3.495 Z"
             style="fill:#c20b1d;fill-opacity:1;fill-rule:nonzero;stroke:none"
             id="path42" /></g><g
           id="g44"
           transform="translate(150.0576,464.7334)"><path
             d="m 0,0 v -12.811 c 0,-2.629 4.053,-2.629 4.053,0 V 0 C 4.053,2.629 0,2.629 0,0"
             style="fill:#feffff;fill-opacity:1;fill-rule:nonzero;stroke:none"
             id="path46" /></g><g
           id="g48"
           transform="translate(160.4541,463.9844)"><path
             d="m 0,0 v -11.323 c 0,-2.628 4.053,-2.628 4.053,0 V 0 C 4.053,2.63 0,2.63 0,0"
             style="fill:#feffff;fill-opacity:1;fill-rule:nonzero;stroke:none"
             id="path50" /></g><g
           id="g52"
           transform="translate(115.9282,403.2173)"><path
             d="m 0,0 c -6.692,-5.046 -13.385,-10.095 -20.076,-15.14 -2.065,-1.557 -0.049,-5.099 2.046,-3.521 6.691,5.048 13.383,10.095 20.076,15.141 C 4.111,-1.962 2.095,1.579 0,0"
             style="fill:#c20b1d;fill-opacity:1;fill-rule:nonzero;stroke:none"
             id="path54" /></g><g
           id="g56"
           transform="translate(134.1191,384.2402)"><path
             d="m 0,0 c -3.089,-7.117 -6.177,-14.234 -9.265,-21.351 -1.035,-2.384 2.456,-4.462 3.498,-2.058 3.091,7.119 6.18,14.235 9.267,21.351 C 4.534,0.328 1.043,2.404 0,0"
             style="fill:#c20b1d;fill-opacity:1;fill-rule:nonzero;stroke:none"
             id="path58" /></g><g
           id="g60"
           transform="translate(166.7314,381.6421)"><path
             d="m 0,0 c 2.703,-6.988 5.407,-13.974 8.108,-20.962 0.937,-2.422 4.857,-1.37 3.909,1.084 C 9.314,-12.891 6.614,-5.902 3.91,1.085 2.972,3.505 -0.948,2.454 0,0"
             style="fill:#c20b1d;fill-opacity:1;fill-rule:nonzero;stroke:none"
             id="path62" /></g><g
           id="g64"
           transform="translate(194.6362,395.2183)"><path
             d="m 0,0 c 5.149,-4.529 10.296,-9.058 15.445,-13.586 1.959,-1.722 4.837,1.148 2.866,2.881 C 13.162,-6.176 8.015,-1.647 2.867,2.882 0.909,4.605 -1.97,1.734 0,0"
             style="fill:#c20b1d;fill-opacity:1;fill-rule:nonzero;stroke:none"
             id="path66" /></g><g
           id="g68"
           transform="translate(107.3062,434.0269)"><path
             d="M 0,0 1.455,7.47 H 96.72 L 97.873,0 Z"
             style="fill:#ffffff;fill-opacity:1;fill-rule:nonzero;stroke:none"
             id="path70" /></g><g
           id="g72"
           transform="translate(109.2617,433.4858)"><path
             d="M 0,0 C 0.484,2.489 0.97,4.979 1.454,7.468 0.802,6.969 0.148,6.472 -0.501,5.973 h 86.23 9.035 C 94.113,6.472 93.462,6.969 92.811,7.468 93.195,4.979 93.578,2.489 93.962,0 c 0.651,0.86 1.303,1.719 1.955,2.579 H 9.436 -1.956 c -2.612,0 -2.612,-4.076 0,-4.076 h 86.482 11.391 c 1.432,0 2.154,1.293 1.955,2.58 -0.385,2.491 -0.769,4.98 -1.153,7.472 -0.135,0.88 -1.133,1.495 -1.955,1.495 H 8.534 -0.501 C -1.352,10.05 -2.284,9.434 -2.456,8.555 -2.94,6.063 -3.426,3.574 -3.91,1.083 -4.41,-1.484 -0.501,-2.58 0,0"
             style="fill:#c20b1d;fill-opacity:1;fill-rule:nonzero;stroke:none"
             id="path74" /></g><g
           id="g76"
           transform="translate(74.4824,426.0737)"><path
             d="M 0,0 C 0,0 -1.761,7.715 6.191,7.951 L 159.079,7.829 c 0,0 5.647,-0.315 5.391,-7.676 z"
             style="fill:#ffffff;fill-opacity:1;fill-rule:nonzero;stroke:none"
             id="path78" /></g><g
           id="g80"
           transform="translate(76.436,426.6167)"><path
             d="m 0,0 c -0.532,2.476 0.809,5.372 4.263,5.369 0.715,0 1.433,-0.002 2.15,-0.002 4.401,-0.004 8.806,-0.006 13.211,-0.009 16.418,-0.014 32.839,-0.025 49.258,-0.041 29.075,-0.02 58.15,-0.045 87.227,-0.067 0.337,-0.001 0.676,-0.001 1.013,-0.001 -0.225,0 0.65,-0.16 1.087,-0.374 1.989,-0.975 2.285,-3.27 2.282,-5.265 0.676,0.679 1.35,1.359 2.026,2.038 C 137.702,1.625 112.886,1.601 88.07,1.58 58.691,1.552 29.313,1.525 -0.065,1.498 c -0.63,0 -1.26,-10e-4 -1.889,-0.002 -2.614,-0.002 -2.614,-4.079 0,-4.077 24.817,0.021 49.63,0.046 74.447,0.07 29.378,0.027 58.757,0.053 88.134,0.08 0.63,10e-4 1.26,0.002 1.89,0.002 1.107,10e-4 2.025,0.927 2.028,2.039 0.01,5.396 -3.05,9.712 -8.545,9.715 -3.821,0.004 -7.638,0.008 -11.458,0.009 C 128.706,9.346 112.87,9.358 97.031,9.373 66.776,9.396 36.519,9.42 6.262,9.444 4.64,9.445 3.146,9.435 1.53,9.077 -3.034,8.065 -4.813,3.105 -3.909,-1.085 -3.354,-3.652 0.554,-2.563 0,0"
             style="fill:#c20b1d;fill-opacity:1;fill-rule:nonzero;stroke:none"
             id="path82" /></g><g
           id="g84"
           transform="translate(211.1553,425.9136)"><path
             d="M 0,0 C 0,0 5.019,-53.96 -56.753,-53.572 -108.897,-53.245 -108.875,0 -108.875,0 Z"
             style="fill:#c20b1d;fill-opacity:1;fill-rule:nonzero;stroke:none"
             id="path86" /></g><g
           id="g88"
           transform="translate(104.3511,421.1626)"><path
             d="m 0,0 c 0.334,-2.969 1.009,-7.091 2.35,-11.657 2.684,-9.147 8.018,-19.996 18.557,-27.223 7.034,-4.824 16.419,-8.107 29.144,-8.193 h 0.661 c 25.833,0.042 39.133,9.609 46.34,20.407 7.194,10.827 8.121,23.184 8.113,28.552 0,0.416 -0.005,0.79 -0.014,1.117 H -0.265 C -0.217,2.225 -0.136,1.208 0,0 m 50.712,-50.567 c -0.222,0 -0.443,10e-4 -0.673,10e-4 -13.314,0.078 -23.468,3.56 -31.092,8.799 -7.627,5.234 -12.699,12.18 -16.053,19.051 -6.708,13.758 -6.693,27.279 -6.703,27.468 0.003,0.094 0,0.217 0.058,0.443 0.061,0.204 0.178,0.631 0.722,1.013 0.305,0.215 0.715,0.302 1.031,0.292 H 106.804 V 4.751 6.5 h 1.582 l 0.148,-1.585 c 0.006,-0.049 0.106,-1.153 0.106,-3.029 -0.008,-5.741 -0.923,-18.737 -8.697,-30.488 -7.746,-11.751 -22.492,-21.966 -49.066,-21.965 z"
             style="fill:#c20b1d;fill-opacity:1;fill-rule:nonzero;stroke:none"
             id="path90" /></g></g></g><g
       id="g92"
       transform="translate(-47.742533,88.563658)"><g
         id="g94"
         clip-path="url(#clipPath98)"><g
           id="g100"
           transform="translate(320.9497,378.5112)"><path
             d="m 0,0 c 0,-3.133 -1.567,-4.698 -4.704,-4.698 -3.136,0 -4.702,1.565 -4.702,4.698 v 42.271 c 0,2.588 -0.922,4.802 -2.76,6.639 -1.842,1.837 -4.056,2.754 -6.647,2.754 -2.595,0 -4.809,-0.917 -6.65,-2.754 -1.839,-1.837 -2.759,-4.051 -2.759,-6.639 V 0 c 0,-3.133 -1.567,-4.698 -4.703,-4.698 -3.135,0 -4.704,1.565 -4.704,4.698 v 42.271 c 0,2.588 -0.919,4.802 -2.759,6.639 -1.841,1.837 -4.056,2.754 -6.648,2.754 -2.592,0 -4.807,-0.917 -6.647,-2.754 -1.84,-1.837 -2.76,-4.051 -2.76,-6.639 V 0 c 0,-3.133 -1.567,-4.698 -4.703,-4.698 -3.136,0 -4.704,1.565 -4.704,4.698 0,0 -0.062,53.179 0,53.66 0.199,1.51 3.934,2.769 7.433,2.185 0.415,-0.066 5.819,5.323 11.381,5.203 5.644,-0.118 10.349,-2.127 14.111,-6.379 3.762,4.252 8.467,6.379 14.112,6.379 5.183,0 9.613,-1.837 13.294,-5.511 C -1.84,51.865 0,47.439 0,42.265 Z"
             style="fill:#c20b1d;fill-opacity:1;fill-rule:nonzero;stroke:none"
             id="path102" /></g><g
           id="g104"
           transform="translate(309.8086,428.4414)"><path
             d="M 0,0 C 2.088,-2.067 3.195,-4.728 3.18,-7.659 V -49.93 c 0.006,-1.344 0.327,-2.078 0.753,-2.501 0.425,-0.426 1.159,-0.747 2.503,-0.752 1.346,0.005 2.082,0.326 2.504,0.752 0.426,0.423 0.748,1.157 0.753,2.501 H 9.694 L 9.693,-7.664 C 9.68,-2.832 8.025,1.146 4.598,4.586 1.149,8.01 -2.834,9.66 -7.672,9.675 -12.951,9.653 -17.161,7.754 -20.7,3.783 l -1.084,-1.225 -1.085,1.225 c -3.527,3.957 -7.737,5.76 -13.078,5.892 -0.036,10e-4 -0.079,0.004 -0.13,0.004 -3.19,0.038 -6.785,-2.311 -8.758,-3.814 -0.686,-0.506 -1.108,-0.863 -1.562,-1.137 -0.17,-0.065 -0.222,-0.206 -0.872,-0.254 -0.002,10e-4 -0.003,10e-4 -0.011,10e-4 -0.02,0 -0.068,-10e-4 -0.157,0.008 l -0.04,0.004 -0.038,0.006 c -0.512,0.086 -1.037,0.126 -1.553,0.126 -1.1,0.001 -2.165,-0.186 -2.961,-0.463 -0.663,-0.214 -1.109,-0.541 -1.24,-0.671 0,-0.029 0,-0.063 -0.001,-0.098 -0.002,-0.19 -0.003,-0.465 -0.005,-0.82 -0.004,-0.708 -0.007,-1.723 -0.008,-2.981 -0.005,-2.515 -0.007,-6.006 -0.006,-9.982 -10e-4,-7.946 0.006,-17.832 0.014,-25.727 0.005,-7.897 0.015,-13.791 0.015,-13.807 0.004,-1.344 0.327,-2.078 0.751,-2.501 0.425,-0.426 1.158,-0.747 2.505,-0.752 1.344,0.005 2.078,0.326 2.503,0.752 0.425,0.423 0.748,1.157 0.752,2.501 v 42.271 c -0.015,2.931 1.091,5.592 3.184,7.659 2.07,2.087 4.733,3.192 7.67,3.179 2.937,0.013 5.602,-1.092 7.672,-3.179 2.09,-2.067 3.196,-4.728 3.184,-7.659 V -49.93 c 0.004,-1.344 0.326,-2.078 0.752,-2.501 0.423,-0.426 1.158,-0.747 2.503,-0.752 1.345,0.005 2.079,0.326 2.504,0.752 0.427,0.423 0.748,1.157 0.752,2.501 v 42.271 c -0.014,2.931 1.092,5.592 3.182,7.659 2.071,2.087 4.736,3.192 7.674,3.179 h 0.056 C -4.702,3.179 -2.06,2.074 0,0 m 6.436,-56.07 c -1.788,-0.006 -3.406,0.457 -4.549,1.597 -1.145,1.14 -1.605,2.757 -1.601,4.543 v 42.271 c -0.014,2.246 -0.749,4.012 -2.334,5.617 -1.609,1.588 -3.379,2.319 -5.624,2.334 -2.249,-0.015 -4.017,-0.746 -5.625,-2.334 -1.588,-1.605 -2.321,-3.371 -2.336,-5.617 V -49.93 c 0.004,-1.786 -0.455,-3.403 -1.6,-4.543 -1.143,-1.14 -2.762,-1.603 -4.551,-1.597 -1.79,-0.006 -3.409,0.457 -4.55,1.597 -1.144,1.14 -1.606,2.757 -1.601,4.543 v 42.271 c -0.013,2.246 -0.749,4.012 -2.336,5.617 -1.61,1.588 -3.375,2.319 -5.624,2.334 -2.248,-0.015 -4.015,-0.746 -5.624,-2.334 -1.589,-1.605 -2.32,-3.371 -2.334,-5.617 V -49.93 c 0.004,-1.786 -0.459,-3.403 -1.601,-4.543 -1.141,-1.14 -2.76,-1.603 -4.55,-1.597 -1.79,-0.006 -3.41,0.457 -4.552,1.597 -1.142,1.14 -1.604,2.757 -1.599,4.541 0,0 -0.03,23.638 -0.03,39.536 0.002,7.465 0.006,13.187 0.026,14.062 0.006,0.09 -0.007,0.051 0.016,0.252 0.108,0.787 0.547,1.362 1.018,1.781 0.48,0.426 1.039,0.74 1.665,0.999 1.246,0.513 2.769,0.805 4.392,0.807 0.489,0 0.99,-0.027 1.492,-0.086 0.16,0.117 0.368,0.277 0.612,0.46 0.654,0.497 1.563,1.175 2.645,1.858 2.169,1.363 5.044,2.814 8.242,2.828 0.07,0 0.148,-10e-4 0.214,-0.003 5.44,-0.097 10.241,-1.946 14.077,-5.719 3.827,3.782 8.633,5.737 14.114,5.72 5.527,0.013 10.407,-2.009 14.319,-5.935 3.929,-3.902 5.956,-8.775 5.94,-14.292 V -49.93 h 0.002 c 0.003,-1.786 -0.459,-3.403 -1.602,-4.543 -1.133,-1.134 -2.738,-1.597 -4.515,-1.597 z"
             style="fill:#c20b1d;fill-opacity:1;fill-rule:nonzero;stroke:none"
             id="path106" /></g><g
           id="g108"
           transform="translate(386.6709,406.5679)"><path
             d="m 0,0 c 0,6.498 -2.306,12.054 -6.917,16.666 -4.609,4.613 -10.157,6.919 -16.652,6.919 -6.495,0 -12.046,-2.306 -16.655,-6.919 -4.61,-4.612 -6.914,-10.168 -6.914,-16.666 0,-6.5 2.304,-12.055 6.914,-16.669 4.609,-4.613 10.16,-6.918 16.655,-6.918 6.495,0 12.043,2.305 16.652,6.918 C -2.306,-12.055 0,-6.5 0,0 m 9.424,0 c 0,-9.096 -3.227,-16.871 -9.677,-23.326 -6.454,-6.455 -14.225,-9.682 -23.316,-9.682 -9.096,0 -16.866,3.227 -23.317,9.682 -6.453,6.455 -9.68,14.23 -9.68,23.326 0,9.096 3.227,16.871 9.68,23.324 6.451,6.455 14.221,9.683 23.317,9.683 9.091,0 16.862,-3.228 23.316,-9.683 C 6.197,16.871 9.424,9.096 9.424,0"
             style="fill:#c20b1d;fill-opacity:1;fill-rule:nonzero;stroke:none"
             id="path110" /></g><g
           id="g112"
           transform="translate(347.4717,422.2114)"><path
             d="m 0,0 c -4.359,-4.381 -6.474,-9.488 -6.489,-15.643 0.015,-6.155 2.13,-11.262 6.489,-15.644 4.378,-4.36 9.481,-6.478 15.63,-6.493 6.15,0.015 11.252,2.133 15.627,6.493 4.36,4.382 6.475,9.489 6.486,15.644 C 37.732,-9.488 35.617,-4.381 31.257,0 26.882,4.36 21.78,6.478 15.63,6.493 9.481,6.478 4.378,4.36 0,0 m 15.63,-40.68 c -6.842,-0.011 -12.842,2.478 -17.682,7.344 -4.861,4.845 -7.352,10.849 -7.339,17.693 -0.013,6.841 2.478,12.848 7.339,17.691 4.84,4.863 10.84,7.358 17.682,7.344 6.837,0.014 12.84,-2.481 17.682,-7.344 4.857,-4.843 7.349,-10.85 7.335,-17.691 0.014,-6.844 -2.478,-12.848 -7.335,-17.692 -4.831,-4.853 -10.811,-7.345 -17.629,-7.345 z M -6.663,6.656 c -6.199,-6.222 -9.238,-13.548 -9.254,-22.299 0.016,-8.751 3.055,-16.079 9.254,-22.301 6.223,-6.203 13.545,-9.244 22.293,-9.258 8.746,0.014 16.067,3.055 22.288,9.258 6.202,6.222 9.243,13.55 9.256,22.301 C 47.161,-6.892 44.12,0.434 37.918,6.656 31.697,12.86 24.376,15.902 15.63,15.916 6.882,15.902 -0.44,12.86 -6.663,6.656 M 15.63,-50.101 c -9.44,-0.016 -17.661,3.4 -24.343,10.105 -6.705,6.687 -10.119,14.913 -10.103,24.353 -0.016,9.438 3.398,17.664 10.103,24.349 C -2.031,15.413 6.19,18.828 15.63,18.815 25.067,18.828 33.288,15.413 39.968,8.706 46.672,2.021 50.09,-6.205 50.073,-15.643 50.09,-25.083 46.672,-33.309 39.968,-39.996 33.301,-46.688 25.101,-50.101 15.691,-50.101 Z"
             style="fill:#c20b1d;fill-opacity:1;fill-rule:nonzero;stroke:none"
             id="path114" /></g><g
           id="g116"
           transform="translate(471.1973,434.8032)"><path
             d="M 0,0 C 0,-1.2 -0.479,-2.277 -1.441,-3.231 L -26.327,-28.084 -1.441,-52.94 C -0.479,-53.901 0,-54.986 0,-56.195 c 0,-1.294 -0.478,-2.422 -1.436,-3.381 -0.953,-0.962 -2.079,-1.442 -3.368,-1.442 -1.203,0 -2.284,0.494 -3.241,1.482 l -24.889,24.854 -24.924,-24.894 c -0.963,-0.962 -2.048,-1.442 -3.26,-1.442 -1.294,0 -2.428,0.478 -3.386,1.433 -0.959,0.955 -1.444,2.076 -1.444,3.366 0,1.203 0.497,2.281 1.486,3.238 l 24.926,24.897 -24.926,24.895 c -0.989,0.945 -1.486,2.019 -1.486,3.214 0,1.276 0.485,2.389 1.444,3.336 0.958,0.95 2.092,1.422 3.386,1.422 1.212,0 2.297,-0.479 3.26,-1.439 l 24.924,-24.832 24.889,24.854 c 0.957,0.946 2.038,1.417 3.241,1.417 1.289,0 2.415,-0.475 3.368,-1.429 C -0.478,2.403 0,1.284 0,0"
             style="fill:#c20b1d;fill-opacity:1;fill-rule:nonzero;stroke:none"
             id="path118" /></g><g
           id="g120"
           transform="translate(407.71,437.1367)"><path
             d="m 0,0 c -0.721,-0.732 -0.996,-1.397 -1.013,-2.309 0.016,-0.786 0.271,-1.42 1.06,-2.191 L 25.998,-30.418 0.027,-56.352 c -0.766,-0.762 -1.024,-1.404 -1.04,-2.201 0.017,-0.925 0.294,-1.604 1.018,-2.342 0.737,-0.716 1.428,-0.997 2.36,-1.011 0.823,0.012 1.477,0.278 2.238,1.017 l 25.951,25.917 25.931,-25.893 c 0.756,-0.764 1.399,-1.029 2.199,-1.039 0.926,0.012 1.604,0.291 2.344,1.012 0.718,0.742 0.998,1.43 1.011,2.364 -0.01,0.816 -0.274,1.474 -1.015,2.234 L 35.113,-30.417 61.028,-4.54 c 0.741,0.756 1,1.401 1.011,2.207 -0.013,0.918 -0.289,1.597 -1.006,2.331 C 60.297,0.714 59.612,0.993 58.684,1.006 57.865,0.995 57.214,0.732 56.468,0.01 L 30.556,-25.864 4.605,-0.012 C 3.842,0.73 3.188,0.995 2.365,1.006 1.431,0.993 0.738,0.711 0,0 m -2.035,-62.944 c -1.205,1.173 -1.884,2.74 -1.87,4.391 -0.014,1.61 0.712,3.126 1.904,4.261 l 23.906,23.874 -23.881,23.853 c -1.212,1.14 -1.943,2.651 -1.929,4.256 -0.014,1.643 0.669,3.202 1.872,4.367 1.178,1.183 2.749,1.851 4.398,1.837 C 3.97,3.907 5.487,3.211 6.648,2.035 L 30.553,-21.778 54.426,2.06 c 1.158,1.165 2.667,1.847 4.258,1.836 1.652,0.013 3.217,-0.661 4.391,-1.852 1.195,-1.169 1.876,-2.73 1.861,-4.377 0.014,-1.595 -0.691,-3.104 -1.866,-4.253 L 39.207,-30.418 63.07,-54.251 c 1.18,-1.161 1.88,-2.675 1.866,-4.277 0.015,-1.656 -0.663,-3.223 -1.857,-4.4 -1.172,-1.2 -2.742,-1.878 -4.395,-1.866 -1.612,-0.012 -3.13,0.711 -4.264,1.903 L 30.554,-39.059 6.648,-62.931 C 5.487,-64.112 3.97,-64.806 2.365,-64.794 H 2.321 c -1.642,0 -3.189,0.669 -4.356,1.85"
             style="fill:#c20b1d;fill-opacity:1;fill-rule:nonzero;stroke:none"
             id="path122" /></g><g
           id="g124"
           transform="translate(543.0703,378.4292)"><path
             d="m 0,0 c 0,-3.135 -1.577,-4.701 -4.718,-4.701 -3.145,0 -4.72,1.566 -4.72,4.701 v 32.911 c 0,5.181 -1.844,9.611 -5.539,13.287 -3.687,3.679 -8.132,5.516 -13.331,5.516 -5.202,0 -9.645,-1.837 -13.333,-5.516 -3.69,-3.676 -5.538,-8.106 -5.538,-13.287 V 0 c 0,-3.135 -1.571,-4.701 -4.717,-4.701 -3.142,0 -4.715,1.566 -4.715,4.699 v 84.587 c 0,3.133 1.573,4.701 4.715,4.701 3.146,0 4.717,-1.567 4.717,-4.699 V 53.906 c 5.369,4.801 11.658,7.201 18.871,7.201 7.799,0 14.467,-2.758 20.002,-8.273 C -2.767,47.318 0,40.674 0,32.904 Z"
             style="fill:#c20b1d;fill-opacity:1;fill-rule:nonzero;stroke:none"
             id="path126" /></g><g
           id="g128"
           transform="translate(529.123,425.6499)"><path
             d="m 0,0 c 3.943,-3.909 5.976,-8.784 5.963,-14.31 v -32.908 c 0.005,-1.347 0.323,-2.083 0.754,-2.505 0.425,-0.426 1.162,-0.747 2.512,-0.753 1.347,0.006 2.084,0.327 2.508,0.753 0.427,0.422 0.753,1.158 0.758,2.505 v 32.901 c -0.018,7.429 -2.597,13.626 -7.878,18.91 -5.305,5.265 -11.52,7.835 -18.977,7.849 -6.889,-0.009 -12.768,-2.255 -17.9,-6.831 l -2.423,-2.164 v 33.921 c -0.005,1.343 -0.327,2.077 -0.755,2.5 -0.424,0.425 -1.162,0.746 -2.511,0.751 -1.349,-0.005 -2.086,-0.326 -2.514,-0.751 -0.428,-0.425 -0.745,-1.16 -0.748,-2.504 v -84.587 c 0.003,-1.343 0.32,-2.078 0.748,-2.501 0.428,-0.425 1.165,-0.746 2.514,-0.752 1.349,0.006 2.087,0.327 2.511,0.753 0.428,0.422 0.75,1.158 0.755,2.505 v 32.908 c -0.014,5.526 2.017,10.401 5.961,14.31 3.919,3.931 8.814,5.954 14.362,5.941 h 0.057 C -8.783,5.941 -3.908,3.915 0,0 m 9.229,-53.366 c -1.798,-0.005 -3.418,0.458 -4.568,1.6 -1.146,1.141 -1.61,2.76 -1.603,4.548 v 32.908 c -0.013,4.838 -1.675,8.82 -5.113,12.266 -3.457,3.428 -7.451,5.08 -12.305,5.094 -4.857,-0.014 -8.852,-1.666 -12.305,-5.094 -3.441,-3.446 -5.098,-7.428 -5.114,-12.266 v -32.908 c 0.005,-1.788 -0.458,-3.407 -1.603,-4.548 -1.146,-1.142 -2.771,-1.605 -4.567,-1.6 -1.795,-0.005 -3.417,0.458 -4.563,1.598 -1.148,1.143 -1.611,2.759 -1.606,4.545 v 84.587 c -0.005,1.789 0.458,3.406 1.606,4.547 1.146,1.141 2.768,1.602 4.563,1.597 1.796,0.005 3.421,-0.456 4.565,-1.597 1.147,-1.14 1.61,-2.757 1.605,-4.543 V 9.73 c 5.076,3.723 10.942,5.612 17.419,5.603 8.145,0.013 15.261,-2.931 21.027,-8.698 5.789,-5.747 8.743,-12.836 8.728,-20.952 v -32.901 c 0.007,-1.788 -0.458,-3.407 -1.602,-4.548 -1.144,-1.137 -2.757,-1.6 -4.537,-1.6 z"
             style="fill:#c20b1d;fill-opacity:1;fill-rule:nonzero;stroke:none"
             id="path130" /></g><g
           id="g132"
           transform="translate(617.9199,385.4067)"><path
             d="m 0,0 c -1.899,-3.897 -6.121,-1.757 -8.1,-2.978 -7.035,-4.339 -12.945,-8.702 -21.25,-8.702 -8.307,0 -15.396,2.902 -21.254,8.702 -5.865,5.803 -8.793,12.815 -8.793,21.039 V 49.37 c 0,3.13 1.577,4.694 4.746,4.694 3.16,0 4.739,-1.564 4.739,-4.694 V 18.055 c 0,-5.595 2.017,-10.383 6.045,-14.37 4.024,-3.989 8.865,-5.982 14.517,-5.982 5.648,0 10.489,1.993 14.516,5.982 4.026,3.987 6.042,8.775 6.042,14.37 V 49.37 c 0,3.13 1.579,4.694 4.74,4.694 3.167,0 4.164,-1.564 4.164,-4.694 z"
             style="fill:#c20b1d;fill-opacity:1;fill-rule:nonzero;stroke:none"
             id="path134" /></g><g
           id="g136"
           transform="translate(560.7373,437.2778)"><path
             d="M 0,0 C -0.425,-0.424 -0.754,-1.159 -0.76,-2.501 V -33.81 c 0.018,-7.882 2.764,-14.448 8.368,-20.018 5.627,-5.55 12.258,-8.264 20.222,-8.279 7.734,-0.015 13.358,4.073 20.487,8.484 1.32,0.764 2.586,0.634 3.69,0.669 1.115,0 2.072,0.074 2.702,0.42 0.365,0.203 0.693,0.472 1.016,1.025 l 0.109,49.008 c 0.011,1.433 -0.259,2.266 -0.567,2.609 C 54.984,0.444 54.508,0.736 53.131,0.75 51.777,0.745 51.035,0.425 50.607,0 50.179,-0.424 49.855,-1.159 49.849,-2.501 v -31.315 c 0.013,-5.937 -2.187,-11.174 -6.469,-15.391 -4.255,-4.236 -9.55,-6.417 -15.55,-6.404 -6,-0.013 -11.293,2.168 -15.55,6.404 -4.282,4.217 -6.484,9.454 -6.467,15.391 V -2.501 C 5.805,-1.159 5.479,-0.424 5.054,0 4.626,0.425 3.886,0.745 2.531,0.75 1.171,0.745 0.428,0.425 0,0 m 5.544,-55.87 c -6.118,6.037 -9.236,13.496 -9.222,22.06 v 31.309 c -0.008,1.785 0.464,3.399 1.612,4.542 1.154,1.141 2.785,1.602 4.597,1.598 C 4.333,3.643 5.965,3.182 7.119,2.041 8.27,0.898 8.738,-0.716 8.733,-2.501 v -31.315 c 0.013,-5.25 1.835,-9.593 5.615,-13.35 3.793,-3.738 8.179,-5.544 13.482,-5.558 5.302,0.014 9.689,1.82 13.485,5.558 3.776,3.757 5.6,8.1 5.615,13.35 v 31.315 c -0.008,1.785 0.465,3.399 1.611,4.542 1.154,1.141 2.786,1.602 4.59,1.598 1.792,0.015 3.394,-0.477 4.399,-1.708 0.983,-1.221 1.217,-2.734 1.224,-4.437 l -0.11,-49.366 -0.002,-0.327 -0.143,-0.296 c -0.857,-1.838 -2.432,-2.819 -3.861,-3.113 -1.423,-0.319 -2.728,-0.197 -3.653,-0.25 -0.619,-0.02 -1.011,-0.13 -1.129,-0.216 -6.945,-4.265 -13.145,-8.906 -22.026,-8.921 h -0.059 c -8.628,0 -16.145,3.086 -22.227,9.125"
             style="fill:#c20b1d;fill-opacity:1;fill-rule:nonzero;stroke:none"
             id="path138" /></g></g></g></g></svg>
