<?xml version="1.0" encoding="UTF-8"?>
<svg width="761px" height="455px" viewBox="0 0 761 455" version="1.1" xmlns="http://www.w3.org/2000/svg" xmlns:xlink="http://www.w3.org/1999/xlink" style="background: #FFFFFF;">
    <!-- Generator: Sketch 54.1 (76490) - https://sketchapp.com -->
    <title>A4</title>
    <desc>Created with Sketch.</desc>
    <defs>
        <linearGradient x1="0%" y1="0%" x2="0%" y2="100%" id="linearGradient-1">
            <stop stop-color="#FF0087" offset="70%"></stop>
            <stop stop-color="#87009D" offset="100%"></stop>
        </linearGradient>
        <linearGradient x1="0%" y1="0%" x2="0%" y2="100%" id="linearGradient-2">
            <stop stop-color="#FFBF00" offset="60%"></stop>
            <stop stop-color="#E03E4C" offset="100%"></stop>
        </linearGradient>
        <linearGradient x1="0%" y1="0%" x2="0%" y2="100%" id="linearGradient-3">
            <stop stop-color="#37A2FF" offset="70%"></stop>
            <stop stop-color="#7415DB" offset="100%"></stop>
        </linearGradient>
        <linearGradient x1="0%" y1="0%" x2="0%" y2="100%" id="linearGradient-4">
            <stop stop-color="#FF0087" offset="70%"></stop>
            <stop stop-color="#87009D" offset="100%"></stop>
        </linearGradient>
        <linearGradient x1="0%" y1="0%" x2="0%" y2="100%" id="linearGradient-5">
            <stop stop-color="#FFBF00" offset="60%"></stop>
            <stop stop-color="#E03E4C" offset="100%"></stop>
        </linearGradient>
        <linearGradient x1="0%" y1="0%" x2="0%" y2="100%" id="linearGradient-6">
            <stop stop-color="#37A2FF" offset="70%"></stop>
            <stop stop-color="#7415DB" offset="100%"></stop>
        </linearGradient>
    </defs>
    <g id="portfolio" stroke="none" stroke-width="1" fill="none" fill-rule="evenodd">
        <g id="A4-Copy-2" transform="translate(-46.000000, -70.000000)">
            <g id="themeRiver-basic-(1)" transform="translate(46.000000, 88.000000)">
                <rect id="0" fill="#FFFFFF" fill-rule="nonzero" x="0" y="1" width="761" height="419"></rect>
                <g id="Group" transform="translate(22.000000, 0.000000)">
                    <path d="M15.9390244,26.1469277 L15.9390244,394.76734 M15.9390244,26.1469277 L15.9390244,394.76734 M144.5,26.1469277 L144.5,394.76734 M272.54878,26.1469277 L272.54878,394.76734 M401.109756,26.1469277 L401.109756,394.76734 M529.670732,26.1469277 L529.670732,394.76734 M658.231707,26.1469277 L658.231707,394.76734 M700.743902,26.1469277 L700.743902,394.76734" id="Shape" stroke-opacity="0.2" stroke="#E0E6F1" fill-opacity="0.2" fill="#000000" fill-rule="nonzero" stroke-dasharray="4,2"></path>
                    <path d="M15.8365854,395.023682 L700.846341,395.023682" id="Path" stroke="#6E7079" stroke-linecap="round"></path>
                    <path d="M15.9390244,394.76734 L15.9390244,397.843449" id="Path" stroke="#6E7079"></path>
                    <path d="M144.5,394.76734 L144.5,397.843449" id="Path" stroke="#6E7079"></path>
                    <path d="M272.54878,394.76734 L272.54878,397.843449" id="Path" stroke="#6E7079"></path>
                    <path d="M401.109756,394.76734 L401.109756,397.843449" id="Path" stroke="#6E7079"></path>
                    <path d="M529.670732,394.76734 L529.670732,397.843449" id="Path" stroke="#6E7079"></path>
                    <path d="M658.231707,394.76734 L658.231707,397.843449" id="Path" stroke="#6E7079"></path>
                    <text id="2005" fill="#6E7079" font-family="Helvetica" font-size="13" font-weight="normal">
                        <tspan x="0" y="408">2005</tspan>
                    </text>
                    <text id="2008" fill="#6E7079" font-family="Helvetica" font-size="13" font-weight="normal">
                        <tspan x="129.614851" y="408.280024">2008</tspan>
                    </text>
                    <text id="2011" fill="#6E7079" font-family="Helvetica" font-size="13" font-weight="normal">
                        <tspan x="257.82738" y="408.280024">2011</tspan>
                    </text>
                    <text id="2014" fill="#6E7079" font-family="Helvetica" font-size="13" font-weight="normal">
                        <tspan x="386.552105" y="408.280024">2014</tspan>
                    </text>
                    <text id="2017" fill="#6E7079" font-family="Helvetica" font-size="13" font-weight="normal">
                        <tspan x="515.020732" y="408.280024">2017</tspan>
                    </text>
                    <text id="2020" fill="#6E7079" font-family="Helvetica" font-size="13" font-weight="normal">
                        <tspan x="643.372168" y="408.280024">2020</tspan>
                    </text>
                    <path d="M15.8365854,191.616529 C15.8365854,191.616529 25.8927171,181.786669 33.5312878,181.786669 C43.0062317,181.786669 48.600222,182.605836 58.6203976,182.605836 C65.7137366,182.605836 69.2974634,182.042396 76.3151,180.967501 C86.410978,179.421089 93.2831,180.967501 101.40421,176.052545 C110.396615,170.610292 110.379456,160.613194 119.098912,153.93532 C127.492971,147.506662 138.304539,151.487096 144.188022,143.286292 C155.46492,127.567733 152.411007,94.1369376 161.999915,94.1369376 C169.571388,94.1369376 176.660168,126.903191 187.089024,126.903191 C193.773683,126.903191 196.890493,107.243418 204.783727,107.243418 C214.004007,107.243418 224.841595,114.668582 229.872837,125.264855 C241.95511,150.711455 234.887534,197.350653 247.567539,197.350653 C252.001049,197.350653 262.964227,194.3233 272.656649,190.797361 C280.077741,188.097717 283.845961,186.270662 290.351351,181.786669 C300.959476,174.474808 304.901483,168.753348 315.440461,161.307728 C322.061915,156.629787 325.708693,154.358644 333.252354,151.477868 C342.869073,147.805404 348.32308,147.610019 358.341463,144.924627 C365.436595,143.022772 371.095173,140.009671 376.036166,140.009671 C388.208688,140.009671 391.735305,177.690881 401.125276,177.690881 C408.848871,177.690881 408.617922,144.924627 418.819978,144.924627 C425.731437,144.924627 435.4571,147.38208 443.909088,147.38208 C452.570615,147.38208 452.921878,128.541475 461.60379,128.541475 C470.035393,128.541475 476.657256,128.541475 486.6929,128.541475 C493.817637,128.541475 498.665768,128.541475 504.504793,128.541475 C515.826149,128.541475 522.95652,104.785966 529.593902,104.785966 C540.070034,104.785966 535.757659,140.276114 547.288605,156.392824 C552.871173,164.195477 566.848107,164.584348 572.377715,164.584348 C583.961622,164.584348 578.753263,129.496043 590.072417,112.158374 C595.866778,103.28303 604.648978,99.0518422 615.161527,99.0518422 C621.762493,99.0518422 626.728993,99.0518422 632.856229,100.690178 C643.842559,103.627708 648.481766,120.349899 657.945339,120.349899 C665.642146,120.349899 669.566841,109.78331 675.757232,101.509346 C686.727273,86.846969 700.846341,63.0089689 700.846341,63.0089689 L700.846341,138.371387 C700.846341,138.371387 684.931824,162.98067 675.757232,180.148333 C667.771444,195.091558 668.521246,218.64871 657.945339,218.64871 C651.360866,218.64871 639.356959,210.457134 632.856229,210.457134 C622.243444,210.457134 624.040429,249.776627 615.161527,249.776627 C606.926915,249.776627 600.183251,231.038201 590.072417,218.64871 C583.069737,210.067801 579.648222,197.350653 572.377715,197.350653 C562.534707,197.350653 558.610268,225.20195 547.288605,225.20195 C541.496754,225.20195 536.448098,221.241613 529.593902,217.829542 C519.334583,212.72238 514.833105,203.903893 504.504793,203.903893 C497.672724,203.903893 491.87319,210.457134 486.6929,210.457134 C474.712759,210.457134 470.021871,174.41426 461.60379,174.41426 C452.908356,174.41426 453.758702,216.191206 443.909088,216.191206 C436.645188,216.191206 427.258751,194.073981 418.819978,194.073981 C410.145237,194.073981 408.029563,223.563614 401.125276,223.563614 C390.916049,223.563614 386.078827,197.018997 376.036166,179.329165 C368.965312,166.87405 368.103851,148.201248 358.341463,148.201248 C350.990285,148.201248 343.185763,153.858417 333.252354,158.031108 C326.025383,161.066971 322.040402,162.064041 315.440461,166.222684 C304.879971,172.876872 300.671417,177.94994 290.351351,185.063289 C283.557902,189.745793 280.302698,192.930797 272.656649,195.712317 C263.189183,199.156432 252.333156,200.627273 247.567539,200.627273 C235.219641,200.627273 241.763702,158.589114 229.872837,136.733051 C224.650137,127.133489 211.406359,121.988235 204.783727,121.988235 C194.292844,121.988235 198.161915,161.581246 187.089024,164.584348 C181.0484,166.222684 170.352178,166.222684 161.999915,166.222684 C153.191798,166.222684 150.839029,146.562912 144.188022,146.562912 C133.678649,146.562912 131.096673,174.384935 119.098912,180.148333 C113.983159,182.605836 108.512863,181.925299 101.40421,182.605836 C91.3993488,183.563583 85.6238878,182.605836 76.3151,184.244121 C68.5103732,185.617757 65.7503585,191.207355 58.6203976,195.712317 C48.6368439,202.020238 43.6839683,211.276302 33.5312878,211.276302 C26.5704537,211.276302 15.8365854,201.44639 15.8365854,201.44639 L15.8365854,191.616529 Z" id="Path" fill-opacity="0.8" fill="url(#linearGradient-1)" fill-rule="nonzero"></path>
                    <path d="M15.8365854,201.44639 C15.8365854,201.44639 26.5704537,211.276302 33.5312878,211.276302 C43.6839683,211.276302 48.6368439,202.020238 58.6203976,195.712317 C65.7503585,191.207355 68.5103732,185.617757 76.3151,184.244121 C85.6238878,182.605836 91.3993488,183.563583 101.40421,182.605836 C108.512863,181.925299 113.983159,182.605836 119.098912,180.148333 C131.096673,174.384935 133.678649,146.562912 144.188022,146.562912 C150.839029,146.562912 153.191798,166.222684 161.999915,166.222684 C170.352178,166.222684 181.0484,166.222684 187.089024,164.584348 C198.161915,161.581246 194.292844,121.988235 204.783727,121.988235 C211.406359,121.988235 224.650137,127.133489 229.872837,136.733051 C241.763702,158.589114 235.219641,200.627273 247.567539,200.627273 C252.333156,200.627273 263.189183,199.156432 272.656649,195.712317 C280.302698,192.930797 283.557902,189.745793 290.351351,185.063289 C300.671417,177.94994 304.879971,172.876872 315.440461,166.222684 C322.040402,162.064041 326.025383,161.066971 333.252354,158.031108 C343.185763,153.858417 350.990285,148.201248 358.341463,148.201248 C368.103851,148.201248 368.965312,166.87405 376.036166,179.329165 C386.078827,197.018997 390.916049,223.563614 401.125276,223.563614 C408.029563,223.563614 410.145237,194.073981 418.819978,194.073981 C427.258751,194.073981 436.645188,216.191206 443.909088,216.191206 C453.758702,216.191206 452.908356,174.41426 461.60379,174.41426 C470.021871,174.41426 474.712759,210.457134 486.6929,210.457134 C491.87319,210.457134 497.672724,203.903893 504.504793,203.903893 C514.833105,203.903893 519.334583,212.72238 529.593902,217.829542 C536.448098,221.241613 541.496754,225.20195 547.288605,225.20195 C558.610268,225.20195 562.534707,197.350653 572.377715,197.350653 C579.648222,197.350653 583.069737,210.067801 590.072417,218.64871 C600.183251,231.038201 606.926915,249.776627 615.161527,249.776627 C624.040429,249.776627 622.243444,210.457134 632.856229,210.457134 C639.356959,210.457134 651.360866,218.64871 657.945339,218.64871 C668.521246,218.64871 667.771444,195.091558 675.757232,180.148333 C684.931824,162.98067 700.846341,138.371387 700.846341,138.371387 L700.846341,354.628678 C700.846341,354.628678 689.281027,293.19196 675.757232,293.19196 C672.120595,293.19196 664.937622,294.011077 657.945339,294.011077 C647.77719,294.011077 641.13448,287.457836 632.856229,287.457836 C624.020966,287.457836 624.137439,308.755893 615.161527,308.755893 C607.023924,308.755893 594.856217,308.755893 590.072417,308.755893 C577.742702,308.755893 584.64238,246.500007 572.377715,246.500007 C567.528866,246.500007 556.195371,247.151629 547.288605,251.414963 C539.081856,255.343206 536.667727,260.74875 529.593902,266.978947 C519.554212,275.821223 515.635612,289.096172 504.504793,289.096172 C498.475232,289.096172 493.851698,285.819552 486.6929,285.819552 C476.691317,285.819552 470.071502,289.096172 461.60379,289.096172 C452.957988,289.096172 452.482312,270.255567 443.909088,270.255567 C435.368746,270.255567 425.219651,275.98964 418.819978,275.98964 C408.106137,275.98964 409.220315,251.859307 401.125276,236.670146 C392.1068,219.748368 385.204305,195.712317 376.036166,195.712317 C368.09079,195.712317 368.98242,228.006695 358.341463,233.393526 C351.868905,236.670146 342.220276,236.670146 333.252354,236.670146 C325.059895,236.670146 322.850951,221.92533 315.440461,221.92533 C305.690571,221.92533 300.544495,239.127599 290.351351,239.127599 C283.430929,239.127599 280.302698,231.260091 272.656649,228.47857 C263.189183,225.034507 251.512824,228.47857 247.567539,223.563614 C234.39931,207.158981 242.87952,168.399237 229.872837,140.009671 C225.765954,131.045684 211.230368,130.179811 204.783727,130.179811 C194.116802,130.179811 198.006412,165.364347 187.089024,171.13764 C180.892898,174.41426 170.184332,174.41426 161.999915,174.41426 C153.0239,174.41426 151.155259,153.116203 144.188022,153.116203 C133.994827,153.116203 130.983017,179.478561 119.098912,185.063289 C113.869502,187.520741 108.443666,186.307729 101.40421,187.520741 C91.3301512,189.256692 85.5107951,188.56226 76.3151,192.435697 C68.3972293,195.770866 65.931061,200.643166 58.6203976,205.542178 C48.8175463,212.111311 43.9714634,221.106162 33.5312878,221.106162 C26.8579488,221.106162 15.8365854,214.552922 15.8365854,214.552922 L15.8365854,201.44639 Z" id="Path" fill-opacity="0.8" fill="url(#linearGradient-2)" fill-rule="nonzero"></path>
                    <path d="M15.8365854,214.552922 C15.8365854,214.552922 26.8579488,221.106162 33.5312878,221.106162 C43.9714634,221.106162 48.8175463,212.111311 58.6203976,205.542178 C65.931061,200.643166 68.3972293,195.770866 76.3151,192.435697 C85.5107951,188.56226 91.3301512,189.256692 101.40421,187.520741 C108.443666,186.307729 113.869502,187.520741 119.098912,185.063289 C130.983017,179.478561 133.994827,153.116203 144.188022,153.116203 C151.155259,153.116203 153.0239,174.41426 161.999915,174.41426 C170.184332,174.41426 180.892898,174.41426 187.089024,171.13764 C198.006412,165.364347 194.116802,130.179811 204.783727,130.179811 C211.230368,130.179811 225.765954,131.045684 229.872837,140.009671 C242.87952,168.399237 234.39931,207.158981 247.567539,223.563614 C251.512824,228.47857 263.189183,225.034507 272.656649,228.47857 C280.302698,231.260091 283.430929,239.127599 290.351351,239.127599 C300.544495,239.127599 305.690571,221.92533 315.440461,221.92533 C322.850951,221.92533 325.059895,236.670146 333.252354,236.670146 C342.220276,236.670146 351.868905,236.670146 358.341463,233.393526 C368.98242,228.006695 368.09079,195.712317 376.036166,195.712317 C385.204305,195.712317 392.1068,219.748368 401.125276,236.670146 C409.220315,251.859307 408.106137,275.98964 418.819978,275.98964 C425.219651,275.98964 435.368746,270.255567 443.909088,270.255567 C452.482312,270.255567 452.957988,289.096172 461.60379,289.096172 C470.071502,289.096172 476.691317,285.819552 486.6929,285.819552 C493.851698,285.819552 498.475232,289.096172 504.504793,289.096172 C515.635612,289.096172 519.554212,275.821223 529.593902,266.978947 C536.667727,260.74875 539.081856,255.343206 547.288605,251.414963 C556.195371,247.151629 567.528866,246.500007 572.377715,246.500007 C584.64238,246.500007 577.742702,308.755893 590.072417,308.755893 C594.856217,308.755893 607.023924,308.755893 615.161527,308.755893 C624.137439,308.755893 624.020966,287.457836 632.856229,287.457836 C641.13448,287.457836 647.77719,294.011077 657.945339,294.011077 C664.937622,294.011077 672.120595,293.19196 675.757232,293.19196 C689.281027,293.19196 700.846341,354.628678 700.846341,354.628678 L700.846341,357.905298 C700.846341,357.905298 686.727273,334.067298 675.757232,319.404921 C669.566841,311.130957 665.642146,300.564368 657.945339,300.564368 C648.481766,300.564368 643.842559,317.286559 632.856229,320.224089 C626.728993,321.862425 621.762493,321.862425 615.161527,321.862425 C604.648978,321.862425 595.866778,317.631237 590.072417,308.755893 C578.753263,291.418224 583.961622,256.329919 572.377715,256.329919 C566.848107,256.329919 552.871173,256.71879 547.288605,264.521444 C535.757659,280.638154 540.070034,316.128301 529.593902,316.128301 C522.95652,316.128301 515.826149,292.372792 504.504793,292.372792 C498.665768,292.372792 493.817637,292.372792 486.6929,292.372792 C476.657256,292.372792 470.035393,292.372792 461.60379,292.372792 C452.921878,292.372792 452.570615,273.532188 443.909088,273.532188 C435.4571,273.532188 425.731437,275.98964 418.819978,275.98964 C408.617922,275.98964 408.848871,243.223387 401.125276,243.223387 C391.735305,243.223387 388.208688,280.904596 376.036166,280.904596 C371.095173,280.904596 365.436595,277.891496 358.341463,275.98964 C348.32308,273.304248 342.869073,273.108864 333.252354,269.4364 C325.708693,266.555623 322.061915,264.284481 315.440461,259.606539 C304.901483,252.160919 300.959476,246.439459 290.351351,239.127599 C283.845961,234.643606 280.077741,232.816551 272.656649,230.116906 C262.964227,226.590967 252.001049,223.563614 247.567539,223.563614 C234.887534,223.563614 241.95511,270.202812 229.872837,295.649412 C224.841595,306.245685 214.004007,313.670849 204.783727,313.670849 C196.890493,313.670849 193.773683,294.011077 187.089024,294.011077 C176.660168,294.011077 169.571388,326.77733 161.999915,326.77733 C152.411007,326.77733 155.46492,293.346534 144.188022,277.627976 C138.304539,269.427171 127.492971,273.407605 119.098912,266.978947 C110.379456,260.301073 110.396615,250.303975 101.40421,244.861723 C93.2831,239.946767 86.410978,241.493178 76.3151,239.946767 C69.2974634,238.871872 65.7137366,238.308431 58.6203976,238.308431 C48.600222,238.308431 43.0062317,239.127599 33.5312878,239.127599 C25.8927171,239.127599 15.8365854,229.297738 15.8365854,229.297738 L15.8365854,214.552922 Z" id="Path" fill-opacity="0.8" fill="url(#linearGradient-3)" fill-rule="nonzero"></path>
                    <polyline id="Path" fill="#FFFFFF" fill-rule="nonzero" points="206.001393 0.512684857 504.001393 0.512684857 504.001393 16.5126849 206.001393 16.5126849 206.001393 0.512684857"></polyline>
                    <path d="M214.792683,5 L224.012195,5 C225.002267,5 225.804878,5.8033789 225.804878,6.794397 L225.804878,10.383191 C225.804878,11.3742091 225.002267,12.177588 224.012195,12.177588 L214.792683,12.177588 C213.802611,12.177588 213,11.3742091 213,10.383191 L213,6.794397 C213,5.8033789 213.802611,5 214.792683,5" id="Path" fill-opacity="0.8" fill="url(#linearGradient-4)" fill-rule="nonzero"></path>
                    <text id="Design" fill="#333333" font-family="Helvetica" font-size="13" font-weight="normal">
                        <tspan x="228.365854" y="13">Design</tspan>
                    </text>
                    <path d="M282.792683,5 L292.012195,5 C293.002267,5 293.804878,5.8033789 293.804878,6.794397 L293.804878,10.383191 C293.804878,11.3742091 293.002267,12.177588 292.012195,12.177588 L282.792683,12.177588 C281.802611,12.177588 281,11.3742091 281,10.383191 L281,6.794397 C281,5.8033789 281.802611,5 282.792683,5" id="Path" fill-opacity="0.8" fill="url(#linearGradient-5)" fill-rule="nonzero"></path>
                    <text id="User-Research" fill="#333333" font-family="Helvetica" font-size="13" font-weight="normal">
                        <tspan x="296" y="13">User Research</tspan>
                    </text>
                    <path d="M393.792683,5 L403.012195,5 C404.002267,5 404.804878,5.8033789 404.804878,6.794397 L404.804878,10.383191 C404.804878,11.3742091 404.002267,12.177588 403.012195,12.177588 L393.792683,12.177588 C392.802611,12.177588 392,11.3742091 392,10.383191 L392,6.794397 C392,5.8033789 392.802611,5 393.792683,5" id="Path" fill-opacity="0.8" fill="url(#linearGradient-6)" fill-rule="nonzero"></path>
                    <text id="Development" fill="#333333" font-family="Helvetica" font-size="13" font-weight="normal">
                        <tspan x="407" y="13">Development</tspan>
                    </text>
                </g>
            </g>
            <g id="Design-toolkit" opacity="0.9" transform="translate(88.000000, 165.000000)">
                <g id="Adobe" transform="translate(0.000000, 74.000000)">
                    <circle fill-opacity="0.697934878" fill="#EA0E4E" cx="21" cy="21" r="21"></circle>
                    <text font-family="Helvetica" font-size="13" font-weight="normal" fill="#FFFFFF">
                        <tspan x="2.20458984" y="25">Adobe</tspan>
                    </text>
                </g>
                <g id="UI-design" transform="translate(97.000000, 16.000000)">
                    <circle fill-opacity="0.697934878" fill="#EA0E4E" cx="29.5" cy="29.5" r="29.5"></circle>
                    <text font-family="Helvetica" font-size="13" font-weight="normal" fill="#FFFFFF">
                        <tspan x="2.04003906" y="35">UI design</tspan>
                    </text>
                </g>
                <g id="Wireframes" transform="translate(102.000000, 64.000000)">
                    <circle fill-opacity="0.697934878" fill="#EA0E4E" cx="34.5" cy="34.5" r="34.5"></circle>
                    <text font-family="Helvetica" font-size="13" font-weight="normal" fill="#FFFFFF">
                        <tspan x="1.27636719" y="39">Wireframes</tspan>
                    </text>
                </g>
                <g id="Paper-prototype" transform="translate(329.000000, 31.000000)">
                    <circle fill-opacity="0.697934878" fill="#EA0E4E" cx="34.5" cy="34.5" r="34.5"></circle>
                    <text id="Paper-prototyping" font-family="Helvetica" font-size="13" font-weight="normal" fill="#FFFFFF">
                        <tspan x="17.1550293" y="29">Paper </tspan>
                        <tspan x="2.33959961" y="45">prototyping</tspan>
                    </text>
                </g>
                <g id="Game-design" transform="translate(48.000000, 66.000000)">
                    <circle fill-opacity="0.697934878" fill="#EA0E4E" cx="27" cy="27" r="27"></circle>
                    <text font-family="Helvetica" font-size="13" font-weight="normal" fill="#FFFFFF">
                        <tspan x="9.29956055" y="24">Game </tspan>
                        <tspan x="7.84594727" y="40">design</tspan>
                    </text>
                </g>
                <g id="Sketch" transform="translate(440.000000, 27.000000)">
                    <circle fill-opacity="0.697934878" fill="#EA0E4E" cx="27" cy="27" r="27"></circle>
                    <text font-family="Helvetica" font-size="13" font-weight="normal" fill="#FFFFFF">
                        <tspan x="7.12866211" y="32">Sketch</tspan>
                    </text>
                </g>
                <g id="InVision" transform="translate(395.000000, 71.000000)">
                    <circle fill-opacity="0.697934878" fill="#EA0E4E" cx="25.5" cy="25.5" r="25.5"></circle>
                    <text font-family="Helvetica" font-size="13" font-weight="normal" fill="#FFFFFF">
                        <tspan x="2.48974609" y="28">InVision</tspan>
                    </text>
                </g>
                <g id="Framer" transform="translate(541.000000, 0.000000)">
                    <circle fill-opacity="0.697934878" fill="#EA0E4E" cx="25.5" cy="25.5" r="25.5"></circle>
                    <text font-family="Helvetica" font-size="13" font-weight="normal" fill="#FFFFFF">
                        <tspan x="4.5559082" y="28">Framer</tspan>
                    </text>
                </g>
                <g id="Axure" transform="translate(584.000000, 21.000000)">
                    <circle fill-opacity="0.697934878" fill="#EA0E4E" cx="33" cy="33" r="33"></circle>
                    <text font-family="Helvetica" font-size="13" font-weight="normal" fill="#FFFFFF">
                        <tspan x="16.0200195" y="38">Axure</tspan>
                    </text>
                </g>
            </g>
            <g id="Research-Toolkit" opacity="0.9" transform="translate(84.000000, 174.000000)">
                <g id="Lead-user-innovation" transform="translate(161.000000, 0.000000)">
                    <circle fill-opacity="0.716892483" fill="#FFD300" cx="40" cy="40" r="40"></circle>
                    <text font-family="Helvetica" font-size="13" font-weight="normal" fill="#2A0B1B">
                        <tspan x="10.730957" y="37">Lead-user</tspan>
                        <tspan x="10.3659668" y="53">innovation</tspan>
                    </text>
                </g>
                <g id="Quantitative-research" transform="translate(262.000000, 55.000000)">
                    <circle fill-opacity="0.716892483" fill="#FFD300" cx="40" cy="40" r="40"></circle>
                    <text id="Quantitative-researc" font-family="Helvetica" font-size="13" font-weight="normal" fill="#2A0B1B">
                        <tspan x="5.31323242" y="37">Quantitative</tspan>
                        <tspan x="14.7109375" y="53">research</tspan>
                    </text>
                </g>
                <g id="Mixed-Methods" transform="translate(605.000000, 101.000000)">
                    <circle fill-opacity="0.726043488" fill="#FFB900" cx="40" cy="40" r="40"></circle>
                    <text font-family="Helvetica" font-size="13" font-weight="normal" fill="#2A0B1B">
                        <tspan x="22.661377" y="37">Mixed </tspan>
                        <tspan x="15.0695801" y="53">Methods</tspan>
                    </text>
                </g>
                <g id="Interviews" transform="translate(373.000000, 164.000000)">
                    <circle fill-opacity="0.726043488" fill="#FFB900" cx="29.5" cy="29.5" r="29.5"></circle>
                    <text font-family="Helvetica" font-size="13" font-weight="normal" fill="#2A0B1B">
                        <tspan x="0.240478516" y="34">Interviews</tspan>
                    </text>
                </g>
                <g id="Ethnograpgy" transform="translate(437.000000, 134.000000)">
                    <circle fill-opacity="0.660620629" fill="#EFC601" cx="40" cy="40" r="40"></circle>
                    <text id="Ethnography" font-family="Helvetica" font-size="13" font-weight="normal" fill="#2A0B1B">
                        <tspan x="3.13916016" y="45">Ethnography</tspan>
                    </text>
                </g>
                <g id="Usability-Evaluation" transform="translate(458.000000, 103.000000)">
                    <circle fill-opacity="0.726043488" fill="#FFDB7D" cx="31.5" cy="31.5" r="31.5"></circle>
                    <text id="Usability-evaluation" font-family="Helvetica" font-size="13" font-weight="normal" fill="#2A0B1B">
                        <tspan x="6.93774414" y="29">Usability </tspan>
                        <tspan x="1.8659668" y="45">evaluation</tspan>
                    </text>
                </g>
                <g id="Diary-studies" transform="translate(619.000000, 171.000000)">
                    <circle fill-opacity="0.726043488" fill="#FFDB7D" cx="31.5" cy="31.5" r="31.5"></circle>
                    <text font-family="Helvetica" font-size="13" font-weight="normal" fill="#2A0B1B">
                        <tspan x="16.3322754" y="29">Diary </tspan>
                        <tspan x="10.9050293" y="45">studies</tspan>
                    </text>
                </g>
                <g id="A/B-tests" transform="translate(334.000000, 85.000000)">
                    <circle fill-opacity="0.726043488" fill="#FFB900" cx="29.5" cy="29.5" r="29.5"></circle>
                    <text font-family="Helvetica" font-size="13" font-weight="normal" fill="#2A0B1B">
                        <tspan x="3.49047852" y="34">A/B tests</tspan>
                    </text>
                </g>
                <g id="Grounded-theory" transform="translate(386.000000, 108.000000)">
                    <circle fill-opacity="0.726043488" fill="#FFB900" cx="33.5" cy="33.5" r="33.5"></circle>
                    <text font-family="Helvetica" font-size="13" font-weight="normal" fill="#2A0B1B">
                        <tspan x="4.58959961" y="31">Grounded </tspan>
                        <tspan x="15.4345703" y="47">theory</tspan>
                    </text>
                </g>
                <g id="Focus-groups" opacity="0.920875186" transform="translate(214.000000, 84.000000)">
                    <circle fill-opacity="0.660620629" fill="#EFC601" cx="27" cy="27" r="27"></circle>
                    <text font-family="Helvetica" font-size="13" font-weight="normal" fill="#2A0B1B">
                        <tspan x="9.29956055" y="24">Focus </tspan>
                        <tspan x="7.12548828" y="40">groups</tspan>
                    </text>
                </g>
                <g id="Design-probes" transform="translate(489.000000, 62.000000)">
                    <circle fill-opacity="0.660620629" fill="#EFC601" cx="27" cy="27" r="27"></circle>
                    <text font-family="Helvetica" font-size="13" font-weight="normal" fill="#2A0B1B">
                        <tspan x="6.7668457" y="24">Design </tspan>
                        <tspan x="7.12548828" y="40">probes</tspan>
                    </text>
                </g>
                <g id="Log-analysis" transform="translate(508.000000, 169.000000)">
                    <circle fill-opacity="0.660620629" fill="#EFC601" cx="27" cy="27" r="27"></circle>
                    <text font-family="Helvetica" font-size="13" font-weight="normal" fill="#2A0B1B">
                        <tspan x="16.1550293" y="24">Log</tspan>
                        <tspan x="3.5168457" y="40">analysis</tspan>
                    </text>
                </g>
                <g id="Participatory-design" transform="translate(546.000000, 64.000000)">
                    <circle fill-opacity="0.660620629" fill="#EFC601" cx="37.5" cy="37.5" r="37.5"></circle>
                    <text font-family="Helvetica" font-size="13" font-weight="normal" fill="#2A0B1B">
                        <tspan x="1.37548828" y="34">Participatory</tspan>
                        <tspan x="18.3459473" y="50">design</tspan>
                    </text>
                </g>
                <g id="Contextual-inquiry" transform="translate(552.000000, 132.000000)">
                    <circle fill-opacity="0.660620629" fill="#EFC601" cx="37.5" cy="37.5" r="37.5"></circle>
                    <text font-family="Helvetica" font-size="13" font-weight="normal" fill="#2A0B1B">
                        <tspan x="6.42504883" y="34">Contextual </tspan>
                        <tspan x="18.3522949" y="50">inquiry</tspan>
                    </text>
                </g>
                <g id="Surveys" transform="translate(254.000000, 116.000000)">
                    <circle fill-opacity="0.726043488" fill="#FFB900" cx="27" cy="27" r="27"></circle>
                    <text font-family="Helvetica" font-size="13" font-weight="normal" fill="#2A0B1B">
                        <tspan x="3.52001953" y="32">Surveys</tspan>
                    </text>
                </g>
                <g id="Trend-analysis" transform="translate(0.000000, 92.000000)">
                    <circle fill-opacity="0.716892483" fill="#FFD300" cx="29.5" cy="29.5" r="29.5"></circle>
                    <text font-family="Helvetica" font-size="13" font-weight="normal" fill="#2A0B1B">
                        <tspan x="12.7580566" y="27">Trend </tspan>
                        <tspan x="6.0168457" y="43">analysis</tspan>
                    </text>
                </g>
            </g>
            <g id="Dev-toolkit" opacity="0.9" transform="translate(93.000000, 280.000000)">
                <g id="J2ME" transform="translate(34.000000, 22.000000)">
                    <circle fill-opacity="0.588368663" fill="#0087BD" cx="24" cy="24" r="24"></circle>
                    <text font-family="Helvetica" font-size="13" font-weight="normal" fill="#FFFFFF">
                        <tspan x="7.38500977" y="29">J2ME</tspan>
                    </text>
                </g>
                <g id="Flash" transform="translate(0.000000, 44.000000)">
                    <circle fill-opacity="0.588368663" fill="#0087BD" cx="21" cy="21" r="21"></circle>
                    <text font-family="Helvetica" font-size="13" font-weight="normal" fill="#FFFFFF">
                        <tspan x="5.10546875" y="26">Flash</tspan>
                    </text>
                </g>
                <g id="nodejs" transform="translate(325.000000, 39.000000)">
                    <circle fill-opacity="0.588368663" fill="#0087BD" cx="26" cy="26" r="26"></circle>
                    <text id="node.js" font-family="Helvetica" font-size="13" font-weight="normal" fill="#FFFFFF">
                        <tspan x="5.04003906" y="31">node.js</tspan>
                    </text>
                </g>
                <g id="React" transform="translate(572.000000, 111.000000)">
                    <circle fill-opacity="0.588368663" fill="#0087BD" cx="28.5" cy="28.5" r="28.5"></circle>
                    <text font-family="Helvetica" font-size="13" font-weight="normal" fill="#FFFFFF">
                        <tspan x="11.5200195" y="33">React</tspan>
                    </text>
                </g>
                <g id="Raspberry-pi" transform="translate(443.000000, 96.000000)">
                    <circle fill-opacity="0.588368663" fill="#0087BD" cx="32.5" cy="32.5" r="32.5"></circle>
                    <text font-family="Helvetica" font-size="13" font-weight="normal" fill="#FFFFFF">
                        <tspan x="2.5168457" y="30">Raspberry </tspan>
                        <tspan x="27.440918" y="46">pi</tspan>
                    </text>
                </g>
                <g id="NoSQL" transform="translate(274.000000, 51.000000)">
                    <circle fill-opacity="0.588368663" fill="#0087BD" cx="25.5" cy="25.5" r="25.5"></circle>
                    <text font-family="Helvetica" font-size="13" font-weight="normal" fill="#FFFFFF">
                        <tspan x="4.18457031" y="30">NoSQL</tspan>
                    </text>
                </g>
                <g id="SQL" transform="translate(79.000000, 50.000000)">
                    <circle fill-opacity="0.588368663" fill="#0087BD" cx="21.5" cy="21.5" r="21.5"></circle>
                    <text font-family="Helvetica" font-size="13" font-weight="normal" fill="#FFFFFF">
                        <tspan x="8.49365234" y="26">SQL</tspan>
                    </text>
                </g>
                <g id="Rest" transform="translate(157.000000, 68.000000)">
                    <circle fill-opacity="0.588368663" fill="#0087BD" cx="28.5" cy="28.5" r="28.5"></circle>
                    <text font-family="Helvetica" font-size="13" font-weight="normal" fill="#FFFFFF">
                        <tspan x="15.1350098" y="33">Rest</tspan>
                    </text>
                </g>
                <g id="Java" transform="translate(101.000000, 0.000000)">
                    <circle fill-opacity="0.588368663" fill="#0087BD" cx="45.5" cy="45.5" r="45.5"></circle>
                    <text font-family="Helvetica" font-size="13" font-weight="normal" fill="#FFFFFF">
                        <tspan x="31.7700195" y="51">Java</tspan>
                    </text>
                </g>
            </g>
        </g>
    </g>
</svg>