<?xml version="1.0" encoding="UTF-8"?>
<svg width="587px" height="298px" viewBox="0 0 587 298" version="1.1" xmlns="http://www.w3.org/2000/svg" xmlns:xlink="http://www.w3.org/1999/xlink" style="background: #FFFFFF;">
    <!-- Generator: Sketch 54.1 (76490) - https://sketchapp.com -->
    <title>CV</title>
    <desc>Created with Sketch.</desc>
    <defs>
        <linearGradient x1="0%" y1="0%" x2="0%" y2="100%" id="linearGradient-1">
            <stop stop-color="#FF0087" offset="70%"></stop>
            <stop stop-color="#87009D" offset="100%"></stop>
        </linearGradient>
        <linearGradient x1="0%" y1="0%" x2="0%" y2="100%" id="linearGradient-2">
            <stop stop-color="#FFBF00" offset="60%"></stop>
            <stop stop-color="#E03E4C" offset="100%"></stop>
        </linearGradient>
        <linearGradient x1="0%" y1="0%" x2="0%" y2="100%" id="linearGradient-3">
            <stop stop-color="#37A2FF" offset="70%"></stop>
            <stop stop-color="#7415DB" offset="100%"></stop>
        </linearGradient>
        <linearGradient x1="0%" y1="0%" x2="0%" y2="100%" id="linearGradient-4">
            <stop stop-color="#FF0087" offset="70%"></stop>
            <stop stop-color="#87009D" offset="100%"></stop>
        </linearGradient>
        <linearGradient x1="0%" y1="0%" x2="0%" y2="100%" id="linearGradient-5">
            <stop stop-color="#FFBF00" offset="60%"></stop>
            <stop stop-color="#E03E4C" offset="100%"></stop>
        </linearGradient>
        <linearGradient x1="0%" y1="0%" x2="0%" y2="100%" id="linearGradient-6">
            <stop stop-color="#37A2FF" offset="70%"></stop>
            <stop stop-color="#7415DB" offset="100%"></stop>
        </linearGradient>
    </defs>
    <g id="Page-1" stroke="none" stroke-width="1" fill="none" fill-rule="evenodd">
        <g id="CV" transform="translate(-9.000000, -420.000000)">
            <rect fill="#FFFFFF" x="0" y="0" width="1191" height="842"></rect>
            <g id="themeRiver-basic-(1)-Copy" transform="translate(9.000000, 398.000000)">
                <rect id="0" fill="#FFFFFF" fill-rule="nonzero" x="0" y="0" width="587" height="323"></rect>
                <g id="Group" transform="translate(15.000000, 19.000000)">
                    <path d="M15.2188385,0.187118488 L15.2188385,284.785907 M15.2188385,0.187118488 L15.2188385,284.785907 M114.264126,0.187118488 L114.264126,284.785907 M212.91481,0.187118488 L212.91481,284.785907 M311.960097,0.187118488 L311.960097,284.785907 M411.005384,0.187118488 L411.005384,284.785907 M510.050671,0.187118488 L510.050671,284.785907 M542.802699,0.187118488 L542.802699,284.785907" id="Shape" stroke-opacity="0.2" stroke="#E0E6F1" fill-opacity="0.2" fill="#000000" fill-rule="nonzero" stroke-dasharray="4,2"></path>
                    <path d="M15.1399179,284.98382 L542.881619,284.98382" id="Path" stroke="#6E7079" stroke-linecap="round"></path>
                    <path d="M15.2188385,284.785907 L15.2188385,287.160862" id="Path" stroke="#6E7079"></path>
                    <path d="M114.264126,284.785907 L114.264126,287.160862" id="Path" stroke="#6E7079"></path>
                    <path d="M212.91481,284.785907 L212.91481,287.160862" id="Path" stroke="#6E7079"></path>
                    <path d="M311.960097,284.785907 L311.960097,287.160862" id="Path" stroke="#6E7079"></path>
                    <path d="M411.005384,284.785907 L411.005384,287.160862" id="Path" stroke="#6E7079"></path>
                    <path d="M510.050671,284.785907 L510.050671,287.160862" id="Path" stroke="#6E7079"></path>
                    <text id="2005" fill="#6E7079" font-family="Helvetica" font-size="13" font-weight="normal">
                        <tspan x="0" y="298">2005</tspan>
                    </text>
                    <text id="2008" fill="#6E7079" font-family="Helvetica" font-size="13" font-weight="normal">
                        <tspan x="100" y="298">2008</tspan>
                    </text>
                    <text id="2011" fill="#6E7079" font-family="Helvetica" font-size="13" font-weight="normal">
                        <tspan x="199" y="298">2011</tspan>
                    </text>
                    <text id="2014" fill="#6E7079" font-family="Helvetica" font-size="13" font-weight="normal">
                        <tspan x="297" y="298">2014</tspan>
                    </text>
                    <text id="2017" fill="#6E7079" font-family="Helvetica" font-size="13" font-weight="normal">
                        <tspan x="396" y="298">2017</tspan>
                    </text>
                    <text id="2020" fill="#6E7079" font-family="Helvetica" font-size="13" font-weight="normal">
                        <tspan x="495" y="298">2020</tspan>
                    </text>
                    <path d="M15.1399179,127.940348 C15.1399179,127.940348 22.8873113,120.35106 28.7721798,120.35106 C36.0718175,120.35106 40.3815107,120.983511 48.101203,120.983511 C53.5660168,120.983511 56.3269733,120.548498 61.7334648,119.718609 C69.5114794,118.52468 74.8058643,119.718609 81.062488,115.923946 C87.9903705,111.722175 87.9771513,104.003769 94.6947499,98.8480185 C101.161657,93.884679 109.49105,96.9578313 114.023773,90.6262801 C122.711663,78.4905366 120.358883,52.6798014 127.74632,52.6798014 C133.579496,52.6798014 139.040797,77.9774671 147.075343,77.9774671 C152.225304,77.9774671 154.62654,62.7988519 160.707605,62.7988519 C167.811046,62.7988519 176.160485,68.5315581 180.036628,76.712566 C189.344991,96.3589864 183.900026,132.367462 193.66889,132.367462 C197.084532,132.367462 205.530727,130.03015 212.997913,127.307897 C218.715233,125.223597 221.618326,123.812993 226.630175,120.35106 C234.802832,114.705831 237.839813,110.288494 245.959198,104.539994 C251.060465,100.928321 253.869997,99.1748519 259.681745,96.9507064 C267.090609,94.1153267 271.292457,93.9644775 279.010769,91.8911812 C284.476964,90.4228256 288.836416,88.0965175 292.64303,88.0965175 C302.020922,88.0965175 304.737881,117.188847 311.972054,117.188847 C317.922426,117.188847 317.7445,91.8911812 325.604315,91.8911812 C330.929006,91.8911812 338.421802,93.7884933 344.933339,93.7884933 C351.606308,93.7884933 351.876926,79.2423286 358.565601,79.2423286 C365.061432,79.2423286 370.163014,79.2423286 377.894624,79.2423286 C383.383627,79.2423286 387.118699,79.2423286 391.617171,79.2423286 C400.339312,79.2423286 405.832655,60.9015398 410.946194,60.9015398 C419.017162,60.9015398 415.694843,88.3022282 424.578456,100.74537 C428.879349,106.769523 439.647387,107.069757 443.907479,107.069757 C452.831893,107.069757 448.819296,79.9793168 457.539741,66.5935156 C462.003803,59.7411763 468.76974,56.4744256 476.868764,56.4744256 C481.954246,56.4744256 485.780512,56.4744256 490.501026,57.7393267 C498.965057,60.00729 502.539172,72.9179023 509.830049,72.9179023 C515.759784,72.9179023 518.783427,64.7598127 523.552596,58.3717772 C532.004079,47.0514745 542.881619,28.6469973 542.881619,28.6469973 L542.881619,86.831656 C542.881619,86.831656 530.620839,105.831614 523.552596,119.086159 C517.400226,130.623295 517.977885,148.810939 509.830049,148.810939 C504.757273,148.810939 495.509284,142.486513 490.501026,142.486513 C482.324778,142.486513 483.709202,172.843703 476.868764,172.843703 C470.524696,172.843703 465.329278,158.376427 457.539741,148.810939 C452.144772,142.185922 449.508786,132.367462 443.907479,132.367462 C436.32428,132.367462 433.300834,153.870464 424.578456,153.870464 C420.116327,153.870464 416.226768,150.812828 410.946194,148.178488 C403.042262,144.235429 399.574256,137.426987 391.617171,137.426987 C386.353644,137.426987 381.885596,142.486513 377.894624,142.486513 C368.664945,142.486513 365.051015,114.659084 358.565601,114.659084 C351.866509,114.659084 352.521628,146.913587 344.933339,146.913587 C339.337122,146.913587 332.105672,129.83766 325.604315,129.83766 C318.921166,129.83766 317.29122,152.605563 311.972054,152.605563 C304.106713,152.605563 300.380046,132.111402 292.64303,118.453708 C287.19554,108.837555 286.531857,94.4209438 279.010769,94.4209438 C273.347312,94.4209438 267.334592,98.7886446 259.681745,102.010232 C254.11398,104.354114 251.043891,105.123917 245.959198,108.334658 C237.82324,113.472121 234.580907,117.388858 226.630175,122.880823 C221.396401,126.496019 218.888543,128.955047 212.997913,131.102561 C205.704037,133.76164 197.340392,134.897225 193.66889,134.897225 C184.155886,134.897225 189.197528,102.441049 180.036628,85.5667549 C176.012983,78.1552721 165.809779,74.1828034 160.707605,74.1828034 C152.625273,74.1828034 155.606063,104.751167 147.075343,107.069757 C142.421556,108.334658 134.181028,108.334658 127.74632,108.334658 C120.960416,108.334658 119.147808,93.1560427 114.023773,93.1560427 C105.927196,93.1560427 103.938003,114.636443 94.6947499,119.086159 C90.7534972,120.983511 86.5391005,120.458091 81.062488,120.983511 C73.3545944,121.722953 68.9050934,120.983511 61.7334648,122.248372 C55.7205872,123.308908 53.5942309,127.624439 48.101203,131.102561 C40.4097248,135.972684 36.5939558,143.118963 28.7721798,143.118963 C23.4094497,143.118963 15.1399179,135.529636 15.1399179,135.529636 L15.1399179,127.940348 Z" id="Path" fill-opacity="0.8" fill="url(#linearGradient-1)" fill-rule="nonzero"></path>
                    <path d="M15.1399179,135.529636 C15.1399179,135.529636 23.4094497,143.118963 28.7721798,143.118963 C36.5939558,143.118963 40.4097248,135.972684 48.101203,131.102561 C53.5942309,127.624439 55.7205872,123.308908 61.7334648,122.248372 C68.9050934,120.983511 73.3545944,121.722953 81.062488,120.983511 C86.5391005,120.458091 90.7534972,120.983511 94.6947499,119.086159 C103.938003,114.636443 105.927196,93.1560427 114.023773,93.1560427 C119.147808,93.1560427 120.960416,108.334658 127.74632,108.334658 C134.181028,108.334658 142.421556,108.334658 147.075343,107.069757 C155.606063,104.751167 152.625273,74.1828034 160.707605,74.1828034 C165.809779,74.1828034 176.012983,78.1552721 180.036628,85.5667549 C189.197528,102.441049 184.155886,134.897225 193.66889,134.897225 C197.340392,134.897225 205.704037,133.76164 212.997913,131.102561 C218.888543,128.955047 221.396401,126.496019 226.630175,122.880823 C234.580907,117.388858 237.82324,113.472121 245.959198,108.334658 C251.043891,105.123917 254.11398,104.354114 259.681745,102.010232 C267.334592,98.7886446 273.347312,94.4209438 279.010769,94.4209438 C286.531857,94.4209438 287.19554,108.837555 292.64303,118.453708 C300.380046,132.111402 304.106713,152.605563 311.972054,152.605563 C317.29122,152.605563 318.921166,129.83766 325.604315,129.83766 C332.105672,129.83766 339.337122,146.913587 344.933339,146.913587 C352.521628,146.913587 351.866509,114.659084 358.565601,114.659084 C365.051015,114.659084 368.664945,142.486513 377.894624,142.486513 C381.885596,142.486513 386.353644,137.426987 391.617171,137.426987 C399.574256,137.426987 403.042262,144.235429 410.946194,148.178488 C416.226768,150.812828 420.116327,153.870464 424.578456,153.870464 C433.300834,153.870464 436.32428,132.367462 443.907479,132.367462 C449.508786,132.367462 452.144772,142.185922 457.539741,148.810939 C465.329278,158.376427 470.524696,172.843703 476.868764,172.843703 C483.709202,172.843703 482.324778,142.486513 490.501026,142.486513 C495.509284,142.486513 504.757273,148.810939 509.830049,148.810939 C517.977885,148.810939 517.400226,130.623295 523.552596,119.086159 C530.620839,105.831614 542.881619,86.831656 542.881619,86.831656 L542.881619,253.796265 C542.881619,253.796265 533.971529,206.363147 523.552596,206.363147 C520.750877,206.363147 515.217008,206.995558 509.830049,206.995558 C501.996356,206.995558 496.878714,201.936033 490.501026,201.936033 C483.694208,201.936033 483.78394,218.37951 476.868764,218.37951 C470.599434,218.37951 461.225251,218.37951 457.539741,218.37951 C448.040745,218.37951 453.35636,170.313941 443.907479,170.313941 C440.171854,170.313941 431.440361,170.817035 424.578456,174.108605 C418.255854,177.141462 416.395973,181.314891 410.946194,186.125007 C403.211467,192.951815 400.19252,203.200934 391.617171,203.200934 C386.971907,203.200934 383.409868,200.671171 377.894624,200.671171 C370.189256,200.671171 365.089252,203.200934 358.565601,203.200934 C351.904746,203.200934 351.538278,188.654769 344.933339,188.654769 C338.353733,188.654769 330.534719,193.081844 325.604315,193.081844 C317.350213,193.081844 318.208592,174.451667 311.972054,162.724653 C305.024086,149.659946 299.706301,131.102561 292.64303,131.102561 C286.521795,131.102561 287.208719,156.035909 279.010769,160.19489 C274.024213,162.724653 266.590766,162.724653 259.681745,162.724653 C253.370153,162.724653 251.66835,151.340701 245.959198,151.340701 C238.447738,151.340701 234.483125,164.621965 226.630175,164.621965 C221.298579,164.621965 218.888543,158.54774 212.997913,156.400227 C205.704037,153.741187 196.708397,156.400227 193.66889,152.605563 C183.523891,139.940125 190.05717,110.015097 180.036628,88.0965175 C176.872625,81.17574 165.674194,80.5072297 160.707605,80.5072297 C152.489648,80.5072297 155.486261,107.671966 147.075343,112.129322 C142.301755,114.659084 134.051717,114.659084 127.74632,114.659084 C120.831065,114.659084 119.391436,98.2156075 114.023773,98.2156075 C106.170784,98.2156075 103.850441,118.569052 94.6947499,122.880823 C90.6659349,124.778135 86.4857897,123.841611 81.062488,124.778135 C73.3012836,126.118401 68.8179651,125.582255 61.7334648,128.572798 C55.6334195,131.147764 53.7334468,134.909495 48.101203,138.691849 C40.5489407,143.763645 36.8154463,150.708251 28.7721798,150.708251 C23.6309402,150.708251 15.1399179,145.648726 15.1399179,145.648726 L15.1399179,135.529636 Z" id="Path" fill-opacity="0.8" fill="url(#linearGradient-2)" fill-rule="nonzero"></path>
                    <path d="M15.1399179,145.648726 C15.1399179,145.648726 23.6309402,150.708251 28.7721798,150.708251 C36.8154463,150.708251 40.5489407,143.763645 48.101203,138.691849 C53.7334468,134.909495 55.6334195,131.147764 61.7334648,128.572798 C68.8179651,125.582255 73.3012836,126.118401 81.062488,124.778135 C86.4857897,123.841611 90.6659349,124.778135 94.6947499,122.880823 C103.850441,118.569052 106.170784,98.2156075 114.023773,98.2156075 C119.391436,98.2156075 120.831065,114.659084 127.74632,114.659084 C134.051717,114.659084 142.301755,114.659084 147.075343,112.129322 C155.486261,107.671966 152.489648,80.5072297 160.707605,80.5072297 C165.674194,80.5072297 176.872625,81.17574 180.036628,88.0965175 C190.05717,110.015097 183.523891,139.940125 193.66889,152.605563 C196.708397,156.400227 205.704037,153.741187 212.997913,156.400227 C218.888543,158.54774 221.298579,164.621965 226.630175,164.621965 C234.483125,164.621965 238.447738,151.340701 245.959198,151.340701 C251.66835,151.340701 253.370153,162.724653 259.681745,162.724653 C266.590766,162.724653 274.024213,162.724653 279.010769,160.19489 C287.208719,156.035909 286.521795,131.102561 292.64303,131.102561 C299.706301,131.102561 305.024086,149.659946 311.972054,162.724653 C318.208592,174.451667 317.350213,193.081844 325.604315,193.081844 C330.534719,193.081844 338.353733,188.654769 344.933339,188.654769 C351.538278,188.654769 351.904746,203.200934 358.565601,203.200934 C365.089252,203.200934 370.189256,200.671171 377.894624,200.671171 C383.409868,200.671171 386.971907,203.200934 391.617171,203.200934 C400.19252,203.200934 403.211467,192.951815 410.946194,186.125007 C416.395973,181.314891 418.255854,177.141462 424.578456,174.108605 C431.440361,170.817035 440.171854,170.313941 443.907479,170.313941 C453.35636,170.313941 448.040745,218.37951 457.539741,218.37951 C461.225251,218.37951 470.599434,218.37951 476.868764,218.37951 C483.78394,218.37951 483.694208,201.936033 490.501026,201.936033 C496.878714,201.936033 501.996356,206.995558 509.830049,206.995558 C515.217008,206.995558 520.750877,206.363147 523.552596,206.363147 C533.971529,206.363147 542.881619,253.796265 542.881619,253.796265 L542.881619,256.326028 C542.881619,256.326028 532.004079,237.921551 523.552596,226.601248 C518.783427,220.213212 515.759784,212.055123 509.830049,212.055123 C502.539172,212.055123 498.965057,224.965735 490.501026,227.233698 C485.780512,228.4986 481.954246,228.4986 476.868764,228.4986 C468.76974,228.4986 462.003803,225.231849 457.539741,218.37951 C448.819296,204.993708 452.831893,177.903268 443.907479,177.903268 C439.647387,177.903268 428.879349,178.203502 424.578456,184.227655 C415.694843,196.670797 419.017162,224.071485 410.946194,224.071485 C405.832655,224.071485 400.339312,205.730696 391.617171,205.730696 C387.118699,205.730696 383.383627,205.730696 377.894624,205.730696 C370.163014,205.730696 365.061432,205.730696 358.565601,205.730696 C351.876926,205.730696 351.606308,191.184532 344.933339,191.184532 C338.421802,191.184532 330.929006,193.081844 325.604315,193.081844 C317.7445,193.081844 317.922426,167.784178 311.972054,167.784178 C304.737881,167.784178 302.020922,196.876508 292.64303,196.876508 C288.836416,196.876508 284.476964,194.550199 279.010769,193.081844 C271.292457,191.008548 267.090609,190.857698 259.681745,188.022319 C253.869997,185.798173 251.060465,184.044704 245.959198,180.433031 C237.839813,174.684531 234.802832,170.267194 226.630175,164.621965 C221.618326,161.160033 218.715233,159.749428 212.997913,157.665128 C205.530727,154.942875 197.084532,152.605563 193.66889,152.605563 C183.900026,152.605563 189.344991,188.614039 180.036628,208.260459 C176.160485,216.441467 167.811046,222.174173 160.707605,222.174173 C154.62654,222.174173 152.225304,206.995558 147.075343,206.995558 C139.040797,206.995558 133.579496,232.293224 127.74632,232.293224 C120.358883,232.293224 122.711663,206.482489 114.023773,194.346745 C109.49105,188.015194 101.161657,191.088346 94.6947499,186.125007 C87.9771513,180.969256 87.9903705,173.25085 81.062488,169.049079 C74.8058643,165.254416 69.5114794,166.448345 61.7334648,165.254416 C56.3269733,164.424527 53.5660168,163.989514 48.101203,163.989514 C40.3815107,163.989514 36.0718175,164.621965 28.7721798,164.621965 C22.8873113,164.621965 15.1399179,157.032677 15.1399179,157.032677 L15.1399179,145.648726 Z" id="Path" fill-opacity="0.8" fill="url(#linearGradient-3)" fill-rule="nonzero"></path>
                    <polyline id="Path" fill="#FFFFFF" fill-rule="nonzero" points="161.645713 4 410.829971 4 410.829971 23.3957704 161.645713 23.3957704 161.645713 4"></polyline>
                    <path d="M168.418654,9.46449738 L175.521503,9.46449738 C176.284269,9.46449738 176.902613,10.0847578 176.902613,10.8498879 L176.902613,13.6206688 C176.902613,14.3857989 176.284269,15.0060593 175.521503,15.0060593 L168.418654,15.0060593 C167.655888,15.0060593 167.037544,14.3857989 167.037544,13.6206688 L167.037544,10.8498879 C167.037544,10.0847578 167.655888,9.46449738 168.418654,9.46449738" id="Path" fill-opacity="0.8" fill="url(#linearGradient-4)" fill-rule="nonzero"></path>
                    <text id="Design" fill="#333333" font-family="Helvetica" font-size="11" font-weight="normal">
                        <tspan x="178.875626" y="15.9203681">Design</tspan>
                    </text>
                    <path d="M220.806865,9.46449738 L227.909714,9.46449738 C228.67248,9.46449738 229.290824,10.0847578 229.290824,10.8498879 L229.290824,13.6206688 C229.290824,14.3857989 228.67248,15.0060593 227.909714,15.0060593 L220.806865,15.0060593 C220.044099,15.0060593 219.425755,14.3857989 219.425755,13.6206688 L219.425755,10.8498879 C219.425755,10.0847578 220.044099,9.46449738 220.806865,9.46449738" id="Path" fill-opacity="0.8" fill="url(#linearGradient-5)" fill-rule="nonzero"></path>
                    <text id="User-Research" fill="#333333" font-family="Helvetica" font-size="11" font-weight="normal">
                        <tspan x="230.981978" y="15.9203681">User Research</tspan>
                    </text>
                    <path d="M319.243296,9.46449738 C320.006062,9.46449738 320.624405,10.0847578 320.624405,10.8498879 L320.624405,13.6206688 C320.624405,14.3857989 320.006062,15.0060593 319.243296,15.0060593 L312.140446,15.0060593 C311.377681,15.0060593 310.759337,14.3857989 310.759337,13.6206688 L310.759337,10.8498879 C310.759337,10.0847578 311.377681,9.46449738 312.140446,9.46449738 L319.243296,9.46449738 Z" id="Path" fill-opacity="0.8" fill="url(#linearGradient-6)" fill-rule="nonzero"></path>
                    <text id="Dev-&amp;-Prototyping" fill="#333333" font-family="Helvetica" font-size="11" font-weight="normal">
                        <tspan x="322.31556" y="15.9203681">Dev &amp; Prototyping</tspan>
                    </text>
                </g>
            </g>
            <g id="Design-toolkit-Copy" opacity="0.9" transform="translate(41.000000, 450.000000)">
                <g id="Adobe" transform="translate(0.000000, 63.000000)">
                    <circle fill-opacity="0.697934878" fill="#EA0E4E" cx="16" cy="16" r="16"></circle>
                    <text font-family="Helvetica" font-size="10" font-weight="normal" fill="#FFFFFF">
                        <tspan x="1.54199219" y="19.4285714">Adobe</tspan>
                    </text>
                </g>
                <g id="UI-design" transform="translate(75.000000, 18.000000)">
                    <circle fill-opacity="0.697934878" fill="#EA0E4E" cx="23" cy="23" r="23"></circle>
                    <text font-family="Helvetica" font-size="10" font-weight="normal" fill="#FFFFFF">
                        <tspan x="1.87695312" y="26.4915254">UI design</tspan>
                    </text>
                </g>
                <g id="Wireframes" transform="translate(79.000000, 56.000000)">
                    <circle fill-opacity="0.697934878" fill="#EA0E4E" cx="26.5" cy="26.5" r="26.5"></circle>
                    <text font-family="Helvetica" font-size="10" font-weight="normal" fill="#FFFFFF">
                        <tspan x="0.943359375" y="30.2753623">Wireframes</tspan>
                    </text>
                </g>
                <g id="Paper-prototype" transform="translate(255.000000, 31.000000)">
                    <circle fill-opacity="0.697934878" fill="#EA0E4E" cx="26.5" cy="26.5" r="26.5"></circle>
                    <text id="Paper-prototyping" font-family="Helvetica" font-size="10" font-weight="normal" fill="#FFFFFF">
                        <tspan x="13.1577148" y="22.5942029">Paper </tspan>
                        <tspan x="1.76123047" y="34.5942029">prototyping</tspan>
                    </text>
                </g>
                <g id="Game-design" transform="translate(37.000000, 57.000000)">
                    <circle fill-opacity="0.697934878" fill="#EA0E4E" cx="21" cy="21" r="21"></circle>
                    <text font-family="Helvetica" font-size="10" font-weight="normal" fill="#FFFFFF">
                        <tspan x="7.38427734" y="17.8888889">Game </tspan>
                        <tspan x="6.26611328" y="29.8888889">design</tspan>
                    </text>
                </g>
                <g id="Sketch" transform="translate(340.000000, 27.000000)">
                    <circle fill-opacity="0.697934878" fill="#EA0E4E" cx="21" cy="21" r="21"></circle>
                    <text font-family="Helvetica" font-size="10" font-weight="normal" fill="#FFFFFF">
                        <tspan x="5.71435547" y="24.1111111">Sketch</tspan>
                    </text>
                </g>
                <g id="InVision" transform="translate(305.000000, 60.000000)">
                    <circle fill-opacity="0.697934878" fill="#EA0E4E" cx="20" cy="20" r="20"></circle>
                    <text font-family="Helvetica" font-size="10" font-weight="normal" fill="#FFFFFF">
                        <tspan x="2.29980469" y="24.1176471">InVision</tspan>
                    </text>
                </g>
                <g id="Framer" transform="translate(417.000000, 6.000000)">
                    <circle fill-opacity="0.697934878" fill="#EA0E4E" cx="20" cy="20" r="20"></circle>
                    <text font-family="Helvetica" font-size="10" font-weight="normal" fill="#FFFFFF">
                        <tspan x="3.88916016" y="24.1176471">Framer</tspan>
                    </text>
                </g>
                <g id="Service-Design" transform="translate(412.000000, 35.000000)">
                    <circle fill-opacity="0.697934878" fill="#EA0E4E" cx="20" cy="20" r="20"></circle>
                    <text font-family="Helvetica" font-size="10" font-weight="normal" fill="#FFFFFF">
                        <tspan x="3.32763672" y="17.1176471">Service</tspan>
                        <tspan x="5.26611328" y="29.1176471">design</tspan>
                    </text>
                </g>
                <g id="Axure" transform="translate(444.000000, 42.000000)">
                    <ellipse fill-opacity="0.697934878" fill="#EA0E4E" cx="25" cy="26" rx="25" ry="26"></ellipse>
                    <text font-family="Helvetica" font-size="10" font-weight="normal" fill="#FFFFFF">
                        <tspan x="11.9384766" y="30.0606061">Axure</tspan>
                    </text>
                </g>
                <g id="Data-enabled-design" transform="translate(464.000000, 0.000000)">
                    <ellipse fill-opacity="0.697934878" fill="#EA0E4E" opacity="0.793759301" cx="31" cy="32" rx="31" ry="32"></ellipse>
                    <text id="Data" font-family="Helvetica" font-size="10" font-weight="normal" fill="#FFFFFF">
                        <tspan x="1.25390625" y="32">Data enabled</tspan>
                        <tspan x="16.2661133" y="44">design</tspan>
                    </text>
                </g>
            </g>
            <g id="Research-Toolkit-Copy" opacity="0.9" transform="translate(38.000000, 463.000000)">
                <g id="Lead-user-innovation" transform="translate(124.000000, 0.000000)">
                    <circle fill-opacity="0.716892483" fill="#FFD300" cx="31" cy="31" r="31"></circle>
                    <text font-family="Helvetica" font-size="10" font-weight="normal" fill="#2A0B1B">
                        <tspan x="8.48535156" y="28.225">Lead-user</tspan>
                        <tspan x="8.20458984" y="40.225">innovation</tspan>
                    </text>
                </g>
                <g id="Quantitative-research" transform="translate(202.000000, 43.000000)">
                    <circle fill-opacity="0.716892483" fill="#FFD300" cx="31" cy="31" r="31"></circle>
                    <text id="Quantitative-researc" font-family="Helvetica" font-size="10" font-weight="normal" fill="#2A0B1B">
                        <tspan x="4.31787109" y="28.225">Quantitative</tspan>
                        <tspan x="11.546875" y="40.225">research</tspan>
                    </text>
                </g>
                <g id="Mixed-Methods" transform="translate(467.000000, 77.000000)">
                    <circle fill-opacity="0.726043488" fill="#FFB900" cx="31" cy="31" r="31"></circle>
                    <text font-family="Helvetica" font-size="10" font-weight="normal" fill="#2A0B1B">
                        <tspan x="17.6625977" y="29.3875">Mixed </tspan>
                        <tspan x="11.8227539" y="41.3875">Methods</tspan>
                    </text>
                </g>
                <g id="Interviews" transform="translate(288.000000, 126.000000)">
                    <ellipse fill-opacity="0.726043488" fill="#FFB900" cx="23" cy="22.5" rx="23" ry="22.5"></ellipse>
                    <text font-family="Helvetica" font-size="10" font-weight="normal" fill="#2A0B1B">
                        <tspan x="0.492675781" y="27.0760909">Interviews</tspan>
                    </text>
                </g>
                <g id="Ethnograpgy" transform="translate(338.000000, 103.000000)">
                    <circle fill-opacity="0.660620629" fill="#EFC601" cx="31" cy="31" r="31"></circle>
                    <text id="Ethnography" font-family="Helvetica" font-size="10" font-weight="normal" fill="#2A0B1B">
                        <tspan x="2.64550781" y="35.775">Ethnography</tspan>
                    </text>
                </g>
                <g id="Usability-Evaluation" transform="translate(353.000000, 80.000000)">
                    <ellipse fill-opacity="0.726043488" fill="#FFDB7D" cx="24.5" cy="24" rx="24.5" ry="24"></ellipse>
                    <text id="Usability-evaluation" font-family="Helvetica" font-size="10" font-weight="normal" fill="#2A0B1B">
                        <tspan x="5.60595703" y="21.6190476">Usability </tspan>
                        <tspan x="1.70458984" y="33.6190476">evaluation</tspan>
                    </text>
                </g>
                <g id="Diary-studies" transform="translate(478.000000, 132.000000)">
                    <ellipse fill-opacity="0.726043488" fill="#FFDB7D" cx="24.5" cy="24" rx="24.5" ry="24"></ellipse>
                    <text id="Action-research" font-family="Helvetica" font-size="10" font-weight="normal" fill="#2A0B1B">
                        <tspan x="10.6035156" y="20.6190476">Action</tspan>
                        <tspan x="5.046875" y="32.6190476">research</tspan>
                    </text>
                </g>
                <g id="Diary-studies-Copy" transform="translate(398.000000, 80.000000)">
                    <ellipse id="Diary-studies" fill-opacity="0.726043488" fill="#FFDB7D" cx="24.5" cy="24" rx="24.5" ry="24"></ellipse>
                    <text id="Diary-studies" font-family="Helvetica" font-size="10" font-weight="normal" fill="#2A0B1B">
                        <tspan x="12.8325195" y="21.6190476">Diary </tspan>
                        <tspan x="8.65771484" y="33.6190476">studies</tspan>
                    </text>
                </g>
                <g id="A/B-tests" transform="translate(258.000000, 66.000000)">
                    <ellipse fill-opacity="0.726043488" fill="#FFB900" cx="23" cy="22.5" rx="23" ry="22.5"></ellipse>
                    <text font-family="Helvetica" font-size="10" font-weight="normal" fill="#2A0B1B">
                        <tspan x="2.99267578" y="26.8813559">A/B tests</tspan>
                    </text>
                </g>
                <g id="Grounded-theory" transform="translate(298.000000, 83.000000)">
                    <circle fill-opacity="0.726043488" fill="#FFB900" cx="25.5" cy="25.5" r="25.5"></circle>
                    <text font-family="Helvetica" font-size="10" font-weight="normal" fill="#2A0B1B">
                        <tspan x="3.26123047" y="23.119403">Grounded </tspan>
                        <tspan x="11.6035156" y="35.119403">theory</tspan>
                    </text>
                </g>
                <g id="Focus-groups" opacity="0.920875186" transform="translate(165.000000, 65.000000)">
                    <circle fill-opacity="0.660620629" fill="#EFC601" cx="21" cy="21" r="21"></circle>
                    <text font-family="Helvetica" font-size="10" font-weight="normal" fill="#2A0B1B">
                        <tspan x="7.38427734" y="18.2222222">Focus </tspan>
                        <tspan x="5.71191406" y="30.2222222">groups</tspan>
                    </text>
                </g>
                <g id="Design-probes" transform="translate(377.000000, 47.000000)">
                    <circle fill-opacity="0.660620629" fill="#EFC601" cx="21" cy="21" r="21"></circle>
                    <text font-family="Helvetica" font-size="10" font-weight="normal" fill="#2A0B1B">
                        <tspan x="5.43603516" y="18.2222222">Design </tspan>
                        <tspan x="5.71191406" y="30.2222222">probes</tspan>
                    </text>
                </g>
                <g id="Log-analysis" transform="translate(392.000000, 129.000000)">
                    <circle fill-opacity="0.660620629" fill="#EFC601" cx="21" cy="21" r="21"></circle>
                    <text font-family="Helvetica" font-size="10" font-weight="normal" fill="#2A0B1B">
                        <tspan x="12.6577148" y="18.2222222">Log</tspan>
                        <tspan x="2.93603516" y="30.2222222">analysis</tspan>
                    </text>
                </g>
                <g id="Participatory-design" transform="translate(418.000000, 53.000000)">
                    <circle fill-opacity="0.660620629" fill="#EFC601" cx="29" cy="29" r="29"></circle>
                    <text font-family="Helvetica" font-size="10" font-weight="normal" fill="#2A0B1B">
                        <tspan x="1.21191406" y="25.84">Participatory</tspan>
                        <tspan x="14.2661133" y="37.84">design</tspan>
                    </text>
                </g>
                <g id="Contextual-inquiry" transform="translate(426.000000, 102.000000)">
                    <circle fill-opacity="0.660620629" fill="#EFC601" cx="29" cy="29" r="29"></circle>
                    <text font-family="Helvetica" font-size="10" font-weight="normal" fill="#2A0B1B">
                        <tspan x="5.09619141" y="25.84">Contextual </tspan>
                        <tspan x="14.2709961" y="37.84">inquiry</tspan>
                    </text>
                </g>
                <g id="Surveys" transform="translate(196.000000, 89.000000)">
                    <circle fill-opacity="0.726043488" fill="#FFB900" cx="21" cy="21" r="21"></circle>
                    <text font-family="Helvetica" font-size="10" font-weight="normal" fill="#2A0B1B">
                        <tspan x="2.93847656" y="25.7777778">Surveys</tspan>
                    </text>
                </g>
                <g id="Trend-analysis" transform="translate(0.000000, 71.000000)">
                    <ellipse fill-opacity="0.716892483" fill="#FFD300" cx="23" cy="22.5" rx="23" ry="22.5"></ellipse>
                    <text font-family="Helvetica" font-size="10" font-weight="normal" fill="#2A0B1B">
                        <tspan x="10.121582" y="20.1186441">Trend </tspan>
                        <tspan x="4.93603516" y="32.1186441">analysis</tspan>
                    </text>
                </g>
            </g>
            <g id="Dev-toolkit-Copy" opacity="0.9" transform="translate(45.000000, 545.000000)">
                <g id="J2ME" transform="translate(26.000000, 16.000000)">
                    <circle fill-opacity="0.588368663" fill="#0087BD" cx="18.5" cy="18.5" r="18.5"></circle>
                    <text id="Java-Mobile" font-family="Helvetica" font-size="10" font-weight="normal" fill="#FFFFFF">
                        <tspan x="7.93847656" y="14.2708333">Java </tspan>
                        <tspan x="3.77099609" y="26.2708333">Mobile</tspan>
                    </text>
                </g>
                <g id="Flash" transform="translate(0.000000, 34.000000)">
                    <circle fill-opacity="0.588368663" fill="#0087BD" cx="16" cy="16" r="16"></circle>
                    <text font-family="Helvetica" font-size="10" font-weight="normal" fill="#FFFFFF">
                        <tspan x="3.7734375" y="20.7619048">Flash</tspan>
                    </text>
                </g>
                <g id="nodejs" transform="translate(251.000000, 30.000000)">
                    <circle fill-opacity="0.588368663" fill="#0087BD" cx="20" cy="20" r="20"></circle>
                    <text id="node.js" font-family="Helvetica" font-size="10" font-weight="normal" fill="#FFFFFF">
                        <tspan x="3.87695312" y="24.7692308">node.js</tspan>
                    </text>
                </g>
                <g id="Arduino" transform="translate(225.000000, 19.000000)">
                    <circle fill-opacity="0.588368663" fill="#0087BD" cx="20" cy="20" r="20"></circle>
                    <text font-family="Helvetica" font-size="10" font-weight="normal" fill="#FFFFFF">
                        <tspan x="2.76611328" y="24.7692308">Arduino</tspan>
                    </text>
                </g>
                <g id="React" transform="translate(442.000000, 85.000000)">
                    <circle fill-opacity="0.588368663" fill="#0087BD" cx="22" cy="22" r="22"></circle>
                    <text font-family="Helvetica" font-size="10" font-weight="normal" fill="#FFFFFF">
                        <tspan x="8.93847656" y="26.3859649">React</tspan>
                    </text>
                </g>
                <g id="Raspberry-pi" transform="translate(343.000000, 74.000000)">
                    <ellipse fill-opacity="0.588368663" fill="#0087BD" cx="25" cy="24.5" rx="25" ry="24.5"></ellipse>
                    <text font-family="Helvetica" font-size="10" font-weight="normal" fill="#FFFFFF">
                        <tspan x="1.93603516" y="23.3647059">Raspberry </tspan>
                        <tspan x="21.1083984" y="35.3647059">pi</tspan>
                    </text>
                </g>
                <g id="NoSQL" transform="translate(211.000000, 40.000000)">
                    <ellipse fill-opacity="0.588368663" fill="#0087BD" cx="20" cy="19.5" rx="20" ry="19.5"></ellipse>
                    <text font-family="Helvetica" font-size="10" font-weight="normal" fill="#FFFFFF">
                        <tspan x="3.60351562" y="23.8823529">NoSQL</tspan>
                    </text>
                </g>
                <g id="SQL" transform="translate(61.000000, 39.000000)">
                    <circle fill-opacity="0.588368663" fill="#0087BD" cx="16.5" cy="16.5" r="16.5"></circle>
                    <text font-family="Helvetica" font-size="10" font-weight="normal" fill="#FFFFFF">
                        <tspan x="6.49511719" y="20.8837209">SQL</tspan>
                    </text>
                </g>
                <g id="SQL-Copy" transform="translate(53.000000, 2.000000)">
                    <circle id="SQL" fill-opacity="0.588368663" fill="#0087BD" cx="16.5" cy="16.5" r="16.5"></circle>
                    <text id="PHP" font-family="Helvetica" font-size="10" font-weight="normal" fill="#FFFFFF">
                        <tspan x="6.21923828" y="20.8837209">PHP</tspan>
                    </text>
                </g>
                <g id="Rest" transform="translate(121.000000, 52.000000)">
                    <circle fill-opacity="0.588368663" fill="#0087BD" cx="22" cy="22" r="22"></circle>
                    <text id="Rest-API" font-family="Helvetica" font-size="10" font-weight="normal" fill="#FFFFFF">
                        <tspan x="2.54443359" y="26.3859649">Rest API</tspan>
                    </text>
                </g>
                <g id="Java" transform="translate(88.000000, 0.000000)">
                    <circle fill-opacity="0.588368663" fill="#0087BD" cx="35" cy="35" r="35"></circle>
                    <text font-family="Helvetica" font-size="10" font-weight="normal" fill="#FFFFFF">
                        <tspan x="24.4384766" y="40.1538462">Java</tspan>
                    </text>
                </g>
            </g>
        </g>
    </g>
</svg>