<svg height='100px' width='100px'  fill="#000000" xmlns="http://www.w3.org/2000/svg" xmlns:xlink="http://www.w3.org/1999/xlink" version="1.1" x="0px" y="0px" viewBox="0 0 128 128" style="enable-background:new 0 0 128 128;" xml:space="preserve"><g><path d="M97,58c5.5228882,0,10-4.4771729,10-10c0-0.3535156-0.0195312-0.7024536-0.0552979-1.0465088   c1.9512939,0.6064453,4.2776489,0.5021973,6.0205688,0.2593994c0.6719971-0.0936279,0.9060669-0.9137573,0.411377-1.3781128   c-1.8469849-1.7334595-2.4211426-5.1303024-2.4211426-7.9999313c0-4.7695732-4.9798889-4.5366287-4.9798889-4.5366287   c-3.817749,0-4.8210144,4.1044312-4.8479919,5.6008911C99.868103,38.3268433,98.4735718,38,97,38c-5.5228271,0-10,4.4771118-10,10   C87,53.5228271,91.4771729,58,97,58z M92.154541,41.649231c0.6716309,2.0407715,2.5396729,4.9346313,7.7763062,4.9346313   c0,0,0.2440796,4.803772,3.499939,6.1546631C101.9725342,54.7121582,99.6367798,56,97,56c-4.4111938,0-8-3.5888062-8-8   C89,45.4111328,90.2415161,43.1123657,92.154541,41.649231z"></path><path d="M118.1192627,100.902832l-11.0293579-32.8582153c-1.3305664-3.9639282-4.6229858-6.9533081-8.6965942-7.8961182   l-6.9683228-1.6127319c-2.9561157-0.6841431-5.5170288-2.5195923-7.114624-5.0992432l-14.1239014-22.805481   c-0.0443115,0.5663452-0.1682739,1.1345825-0.4078979,1.6829834l-3.3084106,7.5718994l11.3248291,24.2080688   c1.6954956,3.6243286,2.225769,7.6791992,1.5209961,11.617981c-0.9758301,5.4537964-2.2160645,13.7032471-2.2160645,20.4041748   c0,7.8286133,1.3664551,12.5384521,2.1626587,14.6182861C79.5561523,111.5013428,80.3016968,112,81.1228638,112h26.1409302   c1.0894165,0,1.9784546-0.8719482,1.9996338-1.9611816l0.111145-5.7192993L99.3452148,79.7827148   c-0.2089844-0.5112305,0.0361328-1.0952148,0.5473633-1.3041992c0.5136719-0.2070312,1.0952148,0.0366211,1.3041992,0.5473633   l8.2758789,20.2469482l0.0003662-0.0194092l1.9707642,4.2932129c0.8353882,1.8198242,2.9966431,2.6063843,4.8062744,1.7492065   C117.895813,104.5162354,118.6987305,102.6292114,118.1192627,100.902832z"></path><path d="M65.3416138,37.4735718l2.604248-5.9603271c0.3063354-0.7011719,0.3325806-1.4550171,0.1384277-2.1443481   c-0.2211304-0.7853394-0.7311401-1.4862061-1.4889526-1.9168701h-0.000061   c-0.4991455-0.2836914-1.0418701-0.4182739-1.5771484-0.4182739c-1.1276245,0-2.2221069,0.5973511-2.8051758,1.6569824   L50.2792969,50.5267944c-2.7000122,4.9404297-7.4621582,8.3800659-12.9777222,9.5099487   c-5.187439,1.0626221-11.4205933,3.7687378-14.0661621,10.5078125   c-4.7304688,12.0501099-9.4204712,24.6605225-11.3898315,30.4251709c-0.6083984,1.7808228,0.2805176,3.7209473,2.0241089,4.4293213   c0.4354858,0.1768799,0.8878174,0.2614136,1.3341675,0.2614136c1.2327271,0,2.4187012-0.6449585,3.0703125-1.7680054   l5.3461304-8.5778809l7.7605591-18.2281494c0.2158203-0.5083008,0.8032227-0.7451172,1.3115234-0.5283203   c0.5083008,0.2163086,0.7446289,0.8037109,0.5283203,1.3115234L26,94.8297119V110c0,1.1045532,0.8913574,2,1.9959106,2   c4.4349365,0,15.0648804,0,19.4815674,0c1.0904541,0,1.9785767-0.8713379,1.9960938-1.9616699   c0.1039429-6.4852905,0.5877686-16.8314819,0.8601685-22.3945923c0.1109009-2.2651367,0.6982422-4.4855347,1.7926025-6.4718628   c2.0444336-3.7105713,2.8193359-6.4193726,1.5808105-10.1348877c-1.5236816-4.5709839-0.3859253-6.0521851-0.3859253-6.0521851   L65.3416138,37.4735718z"></path><path d="M18.3325195,51.8131714c0.5189209,0,1.0092163-0.1052856,1.473999-0.2647705   c-0.005249,0.0893555-0.0266724,0.1740723-0.0266724,0.2647705c0,2.5212402,2.0438843,4.5650635,4.5651245,4.5650635   c1.3490601,0,2.5487671-0.5963745,3.3844604-1.5267334C29.5529175,56.7858276,32.131897,58,35,58c5.5228882,0,10-4.4771729,10-10   c0-0.5316162-0.0535889-1.0495605-0.1334839-1.5587769c2.0380859-0.0488281,3.6774902-1.708313,3.6774902-3.7581787   c0-0.8195801-0.2685547-1.5723877-0.7130127-2.1906738c0.6932373-0.6832275,1.1246338-1.6311646,1.1246338-2.6813354   c0-1.8632202-1.3557129-3.4002686-3.1325684-3.7033081c0.0959473-0.3684692,0.163147-0.7481689,0.163147-1.1467285   c0-2.2391357-1.6148071-4.0933228-3.7415771-4.4820557c0.0006104-0.0283203,0.0083618-0.0545654,0.0083618-0.0830078   c0-2.0805664-1.6866455-3.7672119-3.7672119-3.7672119c-1.5187378,0-2.819397,0.9036865-3.4155273,2.1983032   c-0.600769-0.2909546-1.2664185-0.4683228-1.9787598-0.4683228c-0.8143921,0-1.5679932,0.230957-2.2299805,0.6046753   c-0.6862183-0.9276733-1.7789917-1.5368652-3.0214844-1.5368652c-1.7634888,0-3.2322998,1.2167358-3.6425781,2.8530273   c-2.0670776,0.43573-3.619751,2.2676392-3.619751,4.4644165c0,0.4822388,0.0952148,0.9379883,0.2338257,1.3743286   c-2.2811279,0.25354-4.0618896,2.1654663-4.0618896,4.5143433c0,0.1968384,0.0337524,0.3843384,0.0579224,0.574585   c-1.4176025,0.7745972-2.390564,2.2611084-2.390564,3.9904785c0,0.4816895,0.0950317,0.9369507,0.2333374,1.3729248   c-0.5491333,0.7536011-0.8828735,1.673645-0.8828735,2.6774902C13.7674561,49.7693481,15.8113403,51.8131714,18.3325195,51.8131714   z M35,56c-2.2145996,0-4.2211304-0.9053955-5.6710815-2.3644409c1.8807373-0.2108765,3.3483276-1.7879028,3.3483276-3.7250366   c0-0.3623657-0.0673218-0.7056885-0.1628418-1.0373535c1.4451294-0.5267944,2.4827271-1.9003296,2.4827271-3.52771   c0-0.0095215-0.0027466-0.0182495-0.0028076-0.027771c1.9494629-0.1436768,3.4914551-1.7533569,3.4914551-3.7394409   c0-0.2797241-0.0352783-0.550354-0.0931396-0.8126831c1.0067749,0.4741821,1.8982544,1.1494751,2.6230469,1.9778442   c0.7680664,0.8778687,1.3464355,1.9221802,1.6738892,3.0738525C42.887207,46.512207,43,47.2425537,43,48   C43,52.4111938,39.4112549,56,35,56z"></path><path d="M65.3632812,24.0791016c1.1044922,0,2-0.8955078,2-2v-7.5449219c0-1.1044922-0.8955078-2-2-2s-2,0.8955078-2,2v7.5449219   C63.3632812,23.1835938,64.2587891,24.0791016,65.3632812,24.0791016z"></path><path d="M70.7924805,26.746582c0.5117188,0,1.0239258-0.1953125,1.4140625-0.5859375l5.3349609-5.3349609   c0.78125-0.7807617,0.78125-2.0473633,0-2.828125c-0.7802734-0.78125-2.0478516-0.78125-2.828125,0l-5.3349609,5.3349609   c-0.78125,0.7807617-0.78125,2.0473633,0,2.828125C69.7685547,26.5512695,70.2807617,26.746582,70.7924805,26.746582z"></path><path d="M58.2231445,26.1606445c0.3901367,0.390625,0.9023438,0.5859375,1.4140625,0.5859375   s1.0239258-0.1953125,1.4140625-0.5859375c0.78125-0.7807617,0.78125-2.0473633,0-2.828125l-5.3349609-5.3349609   c-0.7802734-0.78125-2.0478516-0.78125-2.828125,0c-0.78125,0.7807617-0.78125,2.0473633,0,2.828125L58.2231445,26.1606445z"></path></g></svg>